<svg width="235" height="274" viewBox="0 0 235 274" fill="none" xmlns="http://www.w3.org/2000/svg">
<g clip-path="url(#clip0_4_132)">
<path d="M227.405 100.989H7.39408C5.43373 100.987 3.55432 100.207 2.16815 98.8217C0.781976 97.436 0.00223305 95.5573 -3.05176e-05 93.5977V7.39138C0.00223305 5.43175 0.781976 3.55303 2.16815 2.16736C3.55432 0.781691 5.43373 0.00223223 7.39408 -3.05176e-05H227.405C229.365 0.00223223 231.244 0.781691 232.631 2.16736C234.017 3.55303 234.796 5.43175 234.799 7.39138V93.5977C234.796 95.5573 234.017 97.436 232.631 98.8217C231.244 100.207 229.365 100.987 227.405 100.989V100.989Z" fill="#F2F2F2"/>
<path d="M176.093 96.275H42.3174C32.3486 96.2638 22.7913 92.3001 15.7423 85.2537C8.69332 78.2073 4.72826 68.6535 4.71701 58.6883V42.3049C4.72825 32.3397 8.6933 22.7859 15.7423 15.7394C22.7913 8.69293 32.3486 4.72925 42.3174 4.71794H192.483C202.451 4.72925 212.009 8.69293 219.058 15.7394C226.107 22.7859 230.072 32.3397 230.083 42.3049C230.067 56.6137 224.373 70.3318 214.252 80.4497C204.13 90.5675 190.407 96.2588 176.093 96.275Z" fill="white"/>
<path d="M141.584 29.396H53.157C52.6513 29.396 52.1662 29.1951 51.8086 28.8376C51.451 28.4801 51.2501 27.9953 51.2501 27.4897C51.2501 26.9841 51.451 26.4993 51.8086 26.1418C52.1662 25.7843 52.6513 25.5835 53.157 25.5835H141.584C142.09 25.5835 142.575 25.7843 142.933 26.1418C143.291 26.4993 143.491 26.9841 143.491 27.4897C143.491 27.9953 143.291 28.4801 142.933 28.8376C142.575 29.1951 142.09 29.396 141.584 29.396V29.396Z" fill="#E6E6E6"/>
<path d="M186.348 49.7344H53.157C52.6513 49.7344 52.1662 49.5335 51.8086 49.176C51.451 48.8185 51.2501 48.3337 51.2501 47.8281C51.2501 47.3225 51.451 46.8377 51.8086 46.4802C52.1662 46.1227 52.6513 45.9219 53.157 45.9219H186.348C186.854 45.9219 187.339 46.1227 187.696 46.4802C188.054 46.8377 188.255 47.3225 188.255 47.8281C188.255 48.3337 188.054 48.8185 187.696 49.176C187.339 49.5335 186.854 49.7344 186.348 49.7344V49.7344Z" fill="#E6E6E6"/>
<path d="M186.348 70.0728H53.157C52.6513 70.0728 52.1662 69.8719 51.8086 69.5144C51.451 69.157 51.2501 68.6721 51.2501 68.1665C51.2501 67.661 51.451 67.1761 51.8086 66.8186C52.1662 66.4611 52.6513 66.2603 53.157 66.2603H186.348C186.854 66.2603 187.339 66.4611 187.696 66.8186C188.054 67.1761 188.255 67.661 188.255 68.1665C188.255 68.6721 188.054 69.157 187.696 69.5144C187.339 69.8719 186.854 70.0728 186.348 70.0728V70.0728Z" fill="#E6E6E6"/>
<path d="M186.348 70.0728H53.157C52.6513 70.0728 52.1662 69.8719 51.8086 69.5144C51.451 69.157 51.2501 68.6721 51.2501 68.1665C51.2501 67.661 51.451 67.1761 51.8086 66.8186C52.1662 66.4611 52.6513 66.2603 53.157 66.2603H186.348C186.854 66.2603 187.339 66.4611 187.696 66.8186C188.054 67.1761 188.255 67.661 188.255 68.1665C188.255 68.6721 188.054 69.157 187.696 69.5144C187.339 69.8719 186.854 70.0728 186.348 70.0728V70.0728Z" fill="#E6E6E6"/>
<path d="M132.253 52.0687C132.274 52.6429 132.421 53.2055 132.683 53.7168C132.946 54.2281 133.317 54.6757 133.771 55.0281C134.225 55.3805 134.751 55.6291 135.311 55.7564C135.872 55.8837 136.453 55.8866 137.015 55.7649L144.287 67.6909L147.382 61.1254L140.002 50.8068C139.735 49.877 139.136 49.0774 138.318 48.5596C137.501 48.0418 136.522 47.8417 135.567 47.9972C134.612 48.1528 133.747 48.6531 133.136 49.4035C132.525 50.1539 132.211 51.1022 132.253 52.0687H132.253Z" fill="#FFB6B6"/>
<path d="M186.827 86.2478L161.765 72.6587L153.86 65.2448C153.86 65.2448 150.424 64.3251 151.689 63.2081C152.954 62.0911 149.349 61.0138 149.349 61.0138L145.105 57.0339L139.075 61.299L140.82 64.0033C140.82 64.0033 140.7 68.48 143.154 67.6188C145.607 66.7575 144.994 70.4704 144.994 70.4704L159.638 93.1616L186.827 86.2478Z" fill="#181818"/>
<path d="M112.847 73.4448C126.367 73.4448 137.327 62.4889 137.327 48.9742C137.327 35.4595 126.367 24.5037 112.847 24.5037C99.3278 24.5037 88.368 35.4595 88.368 48.9742C88.368 62.4889 99.3278 73.4448 112.847 73.4448Z" fill="#F47222"/>
<path d="M186.905 264.486H181.815L179.393 244.861H186.905V264.486Z" fill="#FFB6B6"/>
<path d="M189.591 273.302H185.941L185.29 269.857L183.621 273.302H173.94C173.476 273.302 173.024 273.154 172.65 272.879C172.276 272.604 172 272.217 171.862 271.774C171.724 271.331 171.731 270.855 171.882 270.417C172.034 269.978 172.321 269.6 172.703 269.336L180.434 263.999V260.516L188.566 261.001L189.591 273.302Z" fill="#2F2E41"/>
<path d="M146.196 264.486H141.106L138.684 244.861H146.196V264.486Z" fill="#FFB6B6"/>
<path d="M148.882 273.302H145.232L144.581 269.857L142.912 273.302H133.231C132.767 273.302 132.315 273.154 131.941 272.879C131.567 272.604 131.291 272.217 131.153 271.774C131.015 271.331 131.022 270.855 131.173 270.417C131.325 269.978 131.612 269.6 131.994 269.336L139.725 263.999V260.516L147.857 261.001L148.882 273.302Z" fill="#2F2E41"/>
<path d="M181.504 116.061H155.814V145.298H181.504V116.061Z" fill="#FFB6B6"/>
<path d="M156.407 130.482L152.059 135.618L144.55 151.422L125.628 196.426L121.626 205.944L124.858 222.77C124.858 222.77 125.381 234.623 125.381 236.564C125.381 240.515 128.687 242.704 128.687 242.704L131.112 255.331L154.628 254.343C154.628 254.343 153.808 240.425 148.882 236.914C143.957 233.403 141.693 215.106 141.693 215.106L139.016 206.988L165.102 176.078L165.27 186.882L165.352 192.112C165.352 192.112 161.532 226.127 165.985 232.728C170.438 239.329 166.075 238.553 166.075 238.553L166.288 252.17L194.152 252.367L188.004 213.163C188.004 213.163 184.883 210.7 186.553 208.223C188.223 205.747 184.934 202.714 184.934 202.714L186.409 172.108C186.409 172.108 184.776 166.822 186.697 166.135C188.618 165.447 186.95 160.901 186.95 160.901L187.235 154.978L181.504 136.606L156.407 130.482Z" fill="#181818"/>
<path d="M181.899 116.061L184.666 107.764L186.642 104.999L187.433 97.0967C187.433 75.7618 182.672 79.3145 182.672 79.3145L179.923 71.8109L167.276 71.4158L159.173 79.1201L152.454 81.4906L149.823 95.1569L154.628 109.74L155.814 117.641C153.552 121.815 153.743 119.841 155.616 122.975L177.947 129.099C185.852 131.865 185.852 124.753 184.267 122.975C182.682 121.197 181.899 116.061 181.899 116.061Z" fill="#181818"/>
<path d="M171.966 68.7636C178.441 68.7636 183.69 63.5162 183.69 57.0432C183.69 50.5702 178.441 45.3228 171.966 45.3228C165.49 45.3228 160.241 50.5702 160.241 57.0432C160.241 63.5162 165.49 68.7636 171.966 68.7636Z" fill="#FFB6B6"/>
<path d="M187.618 72.688C187.729 72.8743 187.796 73.0832 187.814 73.299C187.833 73.5148 187.802 73.7319 187.725 73.9343C187.648 74.1367 187.526 74.3191 187.369 74.468C187.212 74.6168 187.023 74.7282 186.816 74.7938C185.243 75.3154 184.275 76.8364 183.144 78.0533C182.018 79.2663 180.204 80.2737 178.765 79.448C177.33 78.6262 177.232 76.5283 176.03 75.3904C174.86 74.2842 172.916 74.4185 171.54 75.26L171.499 75.2853C171.262 75.4401 170.984 75.5218 170.701 75.5205C170.417 75.5192 170.14 75.435 169.904 75.2781C169.668 75.1212 169.484 74.8986 169.373 74.6378C169.262 74.3771 169.23 74.0896 169.281 73.8109C169.763 71.2488 170.245 68.687 170.726 66.1255C169.461 69.1718 167.624 71.9479 165.315 74.3039C164.679 75.0377 163.873 75.6047 162.968 75.9554C162.146 76.2162 161.347 75.3667 160.549 75.5208C162.533 73.7863 169.204 62.6685 168.011 55.2368C166.608 55.3949 165.205 55.5529 163.802 55.7109C163.65 55.0472 163.325 54.4352 162.861 53.937C162.918 54.583 162.835 55.2336 162.62 55.8453C162.035 55.9124 161.446 55.9757 160.861 56.0428C160.047 56.1337 159.161 56.2127 158.462 55.786C157.296 55.0749 157.26 53.3918 157.592 52.0642C158.565 48.2042 161.513 44.9763 165.122 43.2853C168.73 41.5983 169.797 45.3556 173.599 44.1546C181.109 41.784 186.863 45.8376 188.891 53.3602C190.595 59.6698 189.357 66.3665 187.618 72.688Z" fill="#2F2E41"/>
<path d="M220.078 273.557H205.721L205.659 273.445C205.476 273.112 205.299 272.759 205.133 272.397C203.654 269.232 203.029 265.613 202.478 262.419L202.062 260.012C202.012 259.72 202.05 259.42 202.171 259.151C202.292 258.881 202.491 258.653 202.743 258.497C202.994 258.341 203.286 258.263 203.582 258.274C203.878 258.285 204.164 258.384 204.403 258.558C206.585 260.145 208.767 261.73 210.951 263.314C211.778 263.916 212.722 264.612 213.626 265.364C213.713 264.94 213.805 264.515 213.896 264.096C213.959 263.807 214.107 263.543 214.32 263.339C214.534 263.134 214.804 262.997 215.096 262.947C215.388 262.897 215.688 262.934 215.958 263.055C216.229 263.177 216.456 263.376 216.613 263.627L218.293 266.325C219.518 268.295 220.599 270.236 220.379 272.33C220.38 272.355 220.378 272.381 220.373 272.406C220.329 272.75 220.247 273.088 220.129 273.414L220.078 273.557Z" fill="#F0F0F0"/>
<path d="M234.488 273.867L98.062 274C97.9258 273.999 97.7955 273.945 97.6994 273.848C97.6034 273.752 97.5495 273.621 97.5495 273.485C97.5495 273.349 97.6034 273.218 97.6994 273.122C97.7955 273.025 97.9258 272.971 98.062 272.97L234.488 272.837C234.624 272.838 234.754 272.893 234.85 272.989C234.946 273.085 235 273.216 235 273.352C235 273.488 234.946 273.619 234.85 273.715C234.754 273.812 234.624 273.866 234.488 273.867V273.867Z" fill="#CACACA"/>
<path d="M110.622 81.9098L95.6159 69.2417C95.103 68.8078 94.7832 68.1881 94.7268 67.5187C94.6703 66.8493 94.8818 66.1849 95.3148 65.6712L98.0767 62.4019C98.5109 61.8891 99.1308 61.5695 99.8004 61.513C100.47 61.4566 101.135 61.668 101.649 62.1008L116.655 74.7689C117.168 75.2029 117.488 75.8225 117.544 76.4919C117.6 77.1613 117.389 77.8257 116.956 78.3394L114.194 81.6088C113.76 82.1215 113.14 82.4412 112.47 82.4976C111.801 82.5541 111.136 82.3427 110.622 81.9098V81.9098Z" fill="#181818"/>
<path d="M96.4034 65.9348C96.17 66.2116 96.0561 66.5697 96.0865 66.9304C96.1169 67.2911 96.2892 67.625 96.5656 67.8589L111.572 80.5269C111.849 80.7602 112.207 80.8741 112.568 80.8437C112.929 80.8133 113.263 80.641 113.497 80.3647L116.259 77.0954C116.492 76.8186 116.606 76.4605 116.575 76.0998C116.545 75.7391 116.373 75.4052 116.096 75.1713L101.09 62.5032C100.813 62.27 100.455 62.1561 100.094 62.1865C99.7333 62.2169 99.3992 62.3892 99.1653 62.6655L96.4034 65.9348Z" fill="white"/>
<path d="M105.213 70.8594C105.161 70.9323 105.093 70.992 105.013 71.0338C104.934 71.0757 104.846 71.0985 104.757 71.1006L102.399 71.1547C102.323 71.1564 102.248 71.1432 102.177 71.1159C102.107 71.0885 102.042 71.0475 101.987 70.9952C101.933 70.9429 101.889 70.8803 101.858 70.811C101.827 70.7417 101.811 70.6671 101.809 70.5913C101.807 70.5156 101.82 70.4403 101.848 70.3697C101.875 70.2991 101.916 70.2345 101.969 70.1798C102.021 70.125 102.084 70.0811 102.153 70.0505C102.222 70.0199 102.297 70.0033 102.373 70.0015L103.915 69.9661L102.396 65.9593C102.342 65.8163 102.347 65.6579 102.41 65.5187C102.473 65.3795 102.589 65.271 102.732 65.2168C102.874 65.1627 103.033 65.1675 103.172 65.23C103.312 65.2925 103.421 65.4078 103.475 65.5505L105.283 70.3196C105.316 70.4059 105.327 70.4987 105.317 70.5903C105.306 70.682 105.274 70.7697 105.222 70.8463L105.213 70.8594Z" fill="#F47222"/>
<path d="M105.515 71.8664C106.084 71.9499 106.628 72.157 107.108 72.4731C107.587 72.7893 107.992 73.2068 108.293 73.6963C108.594 74.1858 108.784 74.7352 108.85 75.3061C108.916 75.8769 108.855 76.4552 108.673 77.0002L119.742 85.5235L112.877 87.8852L103.418 79.4293C102.522 79.0628 101.792 78.3806 101.366 77.512C100.94 76.6434 100.848 75.6488 101.106 74.7166C101.365 73.7843 101.956 72.9793 102.769 72.454C103.582 71.9287 104.559 71.7196 105.515 71.8664L105.515 71.8664Z" fill="#FFB6B6"/>
<path d="M163.142 76.0807L134.802 93.4988C134.802 93.4988 123.376 89.2725 125.609 87.3161C127.842 85.3596 120.733 84.037 120.733 84.037L112.88 78.7555L108.323 84.0497C108.323 84.0497 109.154 92.649 110.566 91.16C111.979 89.671 114.091 93.7385 114.091 93.7385C114.091 93.7385 114.715 98.2803 118.737 97.1374C122.759 95.9944 133.55 107.975 133.55 107.975L168.428 94.9714L163.142 76.0807Z" fill="#181818"/>
<path d="M111.987 58.7904C111.658 58.7904 111.334 58.7139 111.04 58.567C110.746 58.4201 110.491 58.2068 110.294 57.944L105.103 51.0259C104.937 50.8036 104.815 50.5507 104.746 50.2816C104.677 50.0125 104.662 49.7324 104.701 49.4574C104.741 49.1824 104.834 48.9178 104.975 48.6788C105.117 48.4397 105.304 48.2309 105.527 48.0642C105.976 47.7276 106.54 47.5831 107.096 47.6624C107.371 47.7017 107.635 47.7948 107.875 47.9364C108.114 48.0779 108.323 48.2652 108.489 48.4874L111.885 53.013L120.607 39.9358C120.918 39.4689 121.402 39.1449 121.952 39.0348C122.503 38.9248 123.074 39.0378 123.541 39.349C124.008 39.6603 124.333 40.1442 124.443 40.6944C124.553 41.2446 124.44 41.816 124.128 42.2828L113.748 57.8483C113.56 58.1298 113.307 58.3622 113.011 58.526C112.715 58.6898 112.384 58.7802 112.045 58.7897C112.026 58.79 112.006 58.7904 111.987 58.7904Z" fill="white"/>
</g>
<defs>
<clipPath id="clip0_4_132">
<rect width="235" height="274" fill="white"/>
</clipPath>
</defs>
</svg>
