<svg width="219" height="249" viewBox="0 0 219 249" fill="none" xmlns="http://www.w3.org/2000/svg">
<g clip-path="url(#clip0_4_90)">
<path d="M140.796 184.352C141.288 184.615 141.848 184.72 142.401 184.654C142.955 184.587 143.474 184.352 143.889 183.98C144.305 183.607 144.596 183.116 144.723 182.573C144.85 182.029 144.808 181.459 144.601 180.941C144.657 180.665 144.696 180.467 144.752 180.191C145.815 179.197 147.15 178.543 148.587 178.314C150.023 178.085 151.495 178.291 152.814 178.906C154.133 179.521 155.238 180.516 155.989 181.764C156.739 183.012 157.101 184.456 157.027 185.911C156.69 194.118 157.095 202.974 151.65 209.59C176.501 189.246 187.832 154.589 180.243 123.418C176.519 118.22 174.782 111.314 176.452 105.056C178.547 107.098 182.632 106.549 182.008 103.014C181.673 101.617 181.327 100.225 180.992 98.8277C195.305 93.2322 199.042 114.553 182.087 123.234C183.463 129.16 184.216 135.214 184.335 141.298C186.249 135.812 189.435 130.861 193.632 126.85C197.696 123.185 203.069 121.03 208.067 118.571C214.149 115.571 220.9 121.519 218.505 127.868C214.456 127.349 211.591 132.197 215.265 134.803C208.812 145.661 196.438 152.562 183.866 152.672C182.594 165.061 178.701 177.036 172.447 187.8C180.478 175.565 196.021 179.088 208.304 178.567C209.119 178.464 209.947 178.601 210.685 178.961C211.424 179.321 212.042 179.888 212.464 180.594C212.886 181.3 213.094 182.114 213.063 182.936C213.031 183.758 212.761 184.554 212.286 185.225C210.67 185.13 209.049 185.196 207.446 185.422C206.692 185.534 205.991 185.877 205.439 186.404C204.887 186.93 204.512 187.615 204.364 188.364C204.215 189.113 204.302 189.889 204.612 190.587C204.922 191.285 205.439 191.869 206.093 192.261C195.318 202.157 178.622 204.284 165.517 197.969C161.643 202.858 157.272 207.331 152.475 211.315L132.993 202.011C133.026 201.761 133.07 201.507 133.11 201.26C134.859 202.235 136.721 202.991 138.654 203.513C136.576 195.575 134.26 190.926 140.795 184.352H140.796Z" fill="#F2F2F2"/>
<path d="M106.371 165.575C106.015 166.005 105.536 166.314 104.998 166.462C104.461 166.609 103.891 166.587 103.366 166.399C102.841 166.212 102.387 165.867 102.064 165.411C101.742 164.956 101.567 164.413 101.563 163.854C101.408 163.62 101.296 163.451 101.141 163.217C99.7821 162.698 98.2993 162.597 96.8828 162.928C95.4663 163.259 94.1806 164.006 93.1907 165.073C92.2007 166.141 91.5515 167.48 91.3263 168.92C91.1011 170.359 91.3101 171.833 91.9266 173.153C95.3284 180.626 98.288 188.981 105.822 193.051C75.1467 183.601 51.6037 155.785 46.8958 124.049C48.3872 117.828 47.3958 110.775 43.493 105.611C42.321 108.294 38.3311 109.329 37.5784 105.82C37.3626 104.4 37.1592 102.979 36.9432 101.558C21.5805 101.785 26.1474 122.943 45.1182 124.576C46.0757 130.584 47.6575 136.476 49.8378 142.154C46 137.798 41.1845 134.416 35.7876 132.288C30.6444 130.429 24.8569 130.463 19.3018 130.075C12.5391 129.595 8.52685 137.654 13.1354 142.629C16.6899 140.619 21.1688 144.026 18.7469 147.828C28.8117 155.445 42.8701 157.16 54.555 152.511C60.3973 163.504 68.5114 173.124 78.3566 180.729C66.3118 172.433 53.2435 181.569 41.6713 185.728C40.8778 185.941 40.1632 186.38 39.6147 186.993C39.0662 187.605 38.7075 188.365 38.5823 189.178C38.4572 189.991 38.571 190.823 38.9099 191.573C39.2488 192.323 39.7982 192.957 40.4909 193.399C41.9517 192.701 43.4781 192.149 45.0477 191.753C45.7881 191.572 46.5662 191.624 47.2756 191.904C47.9849 192.183 48.5907 192.675 49.0099 193.313C49.4291 193.95 49.6412 194.702 49.6171 195.465C49.5929 196.228 49.3338 196.965 48.8752 197.575C62.5804 202.668 78.8446 198.329 88.6031 187.529C94.0321 190.593 99.7642 193.083 105.707 194.96L120.247 178.981C120.122 178.762 119.986 178.544 119.856 178.33C118.603 179.894 117.163 181.298 115.569 182.511C114.506 174.375 114.9 169.194 106.372 165.575L106.371 165.575Z" fill="#F2F2F2"/>
<path d="M110.113 98.0583C110.668 98.0022 111.191 97.7767 111.614 97.4124C112.036 97.048 112.336 96.5624 112.474 96.0214C112.611 95.4804 112.58 94.9101 112.383 94.3878C112.186 93.8654 111.834 93.4163 111.374 93.1013C111.266 92.8414 111.189 92.6547 111.081 92.3948C111.411 90.9755 112.155 89.6871 113.22 88.6947C114.285 87.7023 115.622 87.0511 117.059 86.8247C118.496 86.5982 119.967 86.8068 121.285 87.4236C122.602 88.0405 123.706 89.0375 124.455 90.2869C128.743 97.2879 134.007 104.413 133.169 112.947C142.477 82.1778 132.595 47.0783 108.947 25.441C102.963 23.2056 97.6775 18.4431 95.581 12.3152C98.457 12.8397 101.543 10.1026 99.0575 7.51692C98.0021 6.5443 96.9392 5.58171 95.8838 4.60904C104.652 -8.03085 119.62 7.5814 110.376 24.2581C114.816 28.4094 118.811 33.0143 122.295 37.9978C120.831 32.3753 120.721 26.485 121.973 20.8113C123.306 15.4991 126.567 10.7088 129.348 5.87552C132.728 -0.0123967 141.641 1.15456 143.187 7.76321C139.537 9.59396 139.857 15.2191 144.357 15.3297C145.043 27.9479 138.611 40.5886 128.236 47.702C134.075 58.6971 137.509 70.8128 138.307 83.2417C138.165 68.599 153.028 62.8416 162.935 55.5478C163.554 55.0072 164.317 54.6587 165.131 54.5451C165.944 54.4314 166.773 54.5573 167.517 54.9076C168.26 55.2578 168.885 55.8172 169.317 56.5175C169.748 57.2178 169.967 58.0288 169.946 58.8514C168.552 59.6751 167.242 60.6356 166.038 61.7186C165.474 62.2326 165.083 62.9086 164.918 63.6541C164.753 64.3995 164.822 65.1778 165.116 65.8823C165.41 66.5867 165.914 67.1829 166.559 67.5891C167.205 67.9953 167.96 68.1916 168.721 68.1511C165.283 82.3848 152.607 93.4768 138.214 95.5542C137.719 101.777 136.579 107.931 134.814 113.918L113.463 117.077C113.352 116.85 113.247 116.615 113.143 116.388C115.137 116.22 117.104 115.808 118.999 115.161C112.856 109.733 108.346 107.167 110.113 98.0588L110.113 98.0583Z" fill="#F2F2F2"/>
<path d="M131.587 91.2C121.867 91.2 116.594 90.0101 114.753 87.47C113.128 85.2288 114.218 82.2717 115.479 78.8478C116.385 76.3868 117.413 73.5976 117.413 70.8369C117.413 57.4099 124.208 50.6017 137.611 50.6017C144.279 50.6017 151.439 54.1505 156.764 60.0949C161.605 65.499 164.016 71.9667 163.38 77.8396C162.858 82.656 160.621 85.8235 156.338 87.8082L156.087 87.9243L156.016 87.6571C155.646 86.2748 155.02 84.9744 154.171 83.8237C154.088 85.6299 153.633 87.3995 152.836 89.0213L152.79 89.1138L152.691 89.1422C147.844 90.5254 142.09 90.9002 137.62 91.0719C135.444 91.1569 133.433 91.1996 131.587 91.2Z" fill="#2F2E41"/>
<path d="M134.236 109.908C133.863 108.811 133.235 107.819 132.403 107.013C131.571 106.208 130.559 105.614 129.452 105.279C128.345 104.944 127.173 104.878 126.036 105.087C124.898 105.297 123.826 105.775 122.91 106.482L90.9377 125.632L80.933 101.176C81.7782 99.934 82.2089 98.4556 82.1636 96.9531C82.1182 95.4505 81.599 94.0009 80.6805 92.8123C79.7619 91.6236 78.4912 90.7568 77.0505 90.3364C75.6099 89.916 74.0733 89.9634 72.6613 90.4719C71.2492 90.9804 70.0342 91.9239 69.1904 93.1669C68.3466 94.41 67.9175 95.8889 67.9646 97.3914C68.0117 98.8939 68.5325 100.343 69.4524 101.531C70.3723 102.718 71.644 103.583 73.0851 104.002C73.7017 111.054 77.1287 142.575 89.0504 141.43C99.0712 140.466 123.957 123.863 131.686 118.106C132.923 117.186 133.836 115.896 134.294 114.423C134.752 112.95 134.732 111.369 134.236 109.908Z" fill="#FFB6B6"/>
<path d="M158.33 249H130.502L125.836 225.885L124.322 249H98.4724C98.4824 230.848 99.4262 212.708 101.3 194.653L101.621 193.56L102.127 191.811L102.447 190.713L107.796 172.311L108.219 170.85H140.43C142.283 172.594 143.993 174.486 145.542 176.507C146.067 177.177 146.614 177.902 147.176 178.684C147.566 179.237 147.97 179.819 148.374 180.428C151.963 185.781 154.646 191.691 156.314 197.919V197.923C156.598 198.989 156.848 200.079 157.067 201.194V201.198C157.262 202.189 157.433 203.194 157.568 204.222C157.67 204.971 157.758 205.729 157.823 206.497C158.211 210.749 158.075 215.033 157.419 219.252L158.33 249Z" fill="#181818"/>
<path d="M10.7882 37.6425C12.5954 36.9417 13.6659 35.3525 13.1793 34.0931C12.6926 32.8336 10.8331 32.3808 9.02589 33.0816C7.21871 33.7824 6.14821 35.3715 6.63486 36.631C7.12151 37.8905 8.98102 38.3433 10.7882 37.6425Z" fill="#E6E6E6"/>
<path d="M33.5422 34.7183C35.3493 34.0175 36.4199 32.4284 35.9332 31.1689C35.4466 29.9094 33.587 29.4566 31.7798 30.1574C29.9727 30.8583 28.9022 32.4474 29.3888 33.7068C29.8755 34.9663 31.735 35.4191 33.5422 34.7183Z" fill="#3F3D56"/>
<path d="M8.81483 57.0907C10.622 56.3899 11.6925 54.8008 11.2059 53.5413C10.7192 52.2818 8.8597 51.829 7.05252 52.5298C5.24533 53.2307 4.17482 54.8198 4.66147 56.0792C5.14812 57.3387 7.00765 57.7916 8.81483 57.0907Z" fill="#FF6584"/>
<path d="M2.23227 65.6694C3.06134 65.4728 3.50478 64.3456 3.22269 63.1516C2.9406 61.9576 2.03981 61.1491 1.21073 61.3457C0.381656 61.5423 -0.0617633 62.6696 0.220325 63.8635C0.502414 65.0575 1.40319 65.866 2.23227 65.6694Z" fill="#E6E6E6"/>
<path d="M2.09688 80.1935C2.92596 79.9969 3.36938 78.8696 3.08729 77.6757C2.8052 76.4817 1.90442 75.6732 1.07535 75.8697C0.24627 76.0663 -0.197149 77.1936 0.0849399 78.3876C0.367029 79.5815 1.26781 80.3901 2.09688 80.1935Z" fill="#3F3D56"/>
<path d="M22.0674 50.1108C22.8965 49.9142 23.3399 48.7869 23.0578 47.593C22.7757 46.399 21.8749 45.5905 21.0458 45.7871C20.2168 45.9837 19.7733 47.1109 20.0554 48.3049C20.3375 49.4988 21.2383 50.3074 22.0674 50.1108Z" fill="#E6E6E6"/>
<path d="M10.0835 47.1954C10.9125 46.9988 11.356 45.8715 11.0739 44.6775C10.7918 43.4836 9.89101 42.675 9.06193 42.8716C8.23285 43.0682 7.78943 44.1955 8.07152 45.3895C8.35361 46.5834 9.25439 47.392 10.0835 47.1954Z" fill="#FF6584"/>
<path d="M22.7855 33.8212C23.6146 33.6246 24.058 32.4973 23.7759 31.3033C23.4939 30.1094 22.5931 29.3008 21.764 29.4974C20.9349 29.694 20.4915 30.8213 20.7736 32.0152C21.0557 33.2092 21.9565 34.0177 22.7855 33.8212Z" fill="#3F3D56"/>
<path d="M28.693 134.345C29.5668 133.316 29.0789 131.463 27.6033 130.204C26.1276 128.946 24.223 128.76 23.3492 129.788C22.4754 130.816 22.9633 132.67 24.439 133.929C25.9146 135.187 27.8192 135.373 28.693 134.345Z" fill="#E6E6E6"/>
<path d="M15.2921 115.692C16.1658 114.663 15.678 112.81 14.2023 111.551C12.7266 110.293 10.822 110.106 9.94824 111.135C9.07444 112.163 9.56234 114.017 11.038 115.275C12.5137 116.534 14.4183 116.72 15.2921 115.692Z" fill="#3F3D56"/>
<path d="M46.7037 126.823C47.5775 125.795 47.0896 123.941 45.6139 122.683C44.1383 121.424 42.2337 121.238 41.3599 122.266C40.4861 123.295 40.974 125.148 42.4496 126.407C43.9253 127.665 45.8299 127.852 46.7037 126.823Z" fill="#FF6584"/>
<path d="M55.6511 127.029C56.5648 126.212 56.8456 125.034 56.2783 124.397C55.711 123.76 54.5104 123.906 53.5967 124.723C52.683 125.54 52.4021 126.719 52.9695 127.355C53.5368 127.992 54.7374 127.846 55.6511 127.029Z" fill="#E6E6E6"/>
<path d="M68.4644 120.233C69.3781 119.416 69.6589 118.237 69.0916 117.601C68.5242 116.964 67.3236 117.11 66.4099 117.927C65.4962 118.744 65.2154 119.922 65.7827 120.559C66.35 121.196 67.5506 121.05 68.4644 120.233Z" fill="#3F3D56"/>
<path d="M32.5498 116.963C33.4635 116.146 33.7443 114.968 33.177 114.331C32.6097 113.694 31.4091 113.84 30.4954 114.657C29.5816 115.474 29.3008 116.653 29.8682 117.29C30.4355 117.926 31.6361 117.78 32.5498 116.963Z" fill="#E6E6E6"/>
<path d="M35.6969 128.909C36.6106 128.092 36.8914 126.913 36.324 126.277C35.7567 125.64 34.5561 125.786 33.6424 126.603C32.7287 127.42 32.4479 128.598 33.0152 129.235C33.5825 129.872 34.7831 129.726 35.6969 128.909Z" fill="#FF6584"/>
<path d="M17.9093 124.087C18.823 123.27 19.1038 122.091 18.5365 121.455C17.9692 120.818 16.7686 120.964 15.8549 121.781C14.9412 122.598 14.6603 123.776 15.2277 124.413C15.795 125.05 16.9956 124.904 17.9093 124.087Z" fill="#3F3D56"/>
<path d="M118.721 14.7103C119.931 14.1143 120.218 12.2189 119.363 10.4768C118.508 8.73466 116.834 7.80558 115.624 8.40159C114.414 8.9976 114.127 10.893 114.982 12.6351C115.837 14.3772 117.511 15.3063 118.721 14.7103Z" fill="#E6E6E6"/>
<path d="M123.622 37.1618C124.832 36.5658 125.119 34.6703 124.264 32.9282C123.409 31.1861 121.735 30.257 120.525 30.8531C119.315 31.4491 119.028 33.3445 119.883 35.0866C120.739 36.8287 122.412 37.7578 123.622 37.1618Z" fill="#3F3D56"/>
<path d="M99.2097 14.445C100.419 13.8489 100.707 11.9535 99.8516 10.2114C98.9964 8.46933 97.3224 7.54023 96.1127 8.13624C94.903 8.73225 94.6157 10.6277 95.4709 12.3698C96.3261 14.1119 98 15.041 99.2097 14.445Z" fill="#FF6584"/>
<path d="M88.9543 7.32006C90.1168 6.93393 90.8418 5.96415 90.5737 5.15399C90.3056 4.34382 89.1459 4.00006 87.9834 4.38619C86.8209 4.77231 86.0958 5.74211 86.3639 6.55227C86.6321 7.36244 87.7918 7.70619 88.9543 7.32006Z" fill="#E6E6E6"/>
<path d="M74.5005 8.45752C75.663 8.07139 76.388 7.1016 76.1199 6.29144C75.8518 5.48127 74.692 5.13752 73.5295 5.52365C72.367 5.90978 71.642 6.87956 71.9102 7.68973C72.1783 8.49989 73.338 8.84365 74.5005 8.45752Z" fill="#3F3D56"/>
<path d="M106.163 25.7516C107.325 25.3655 108.05 24.3957 107.782 23.5855C107.514 22.7753 106.354 22.4316 105.192 22.8177C104.029 23.2038 103.304 24.1736 103.573 24.9838C103.841 25.794 105 26.1377 106.163 25.7516Z" fill="#E6E6E6"/>
<path d="M108.012 13.5366C109.174 13.1505 109.899 12.1807 109.631 11.3705C109.363 10.5604 108.203 10.2166 107.041 10.6027C105.878 10.9889 105.153 11.9587 105.421 12.7688C105.69 13.579 106.849 13.9227 108.012 13.5366Z" fill="#FF6584"/>
<path d="M122.423 25.041C123.586 24.6549 124.311 23.6851 124.043 22.8749C123.775 22.0648 122.615 21.721 121.452 22.1072C120.29 22.4933 119.565 23.4631 119.833 24.2732C120.101 25.0834 121.261 25.4272 122.423 25.041Z" fill="#3F3D56"/>
<path d="M126.886 94.938L142.216 94.1469L149.337 105.419C149.337 105.419 162.734 107.663 161.806 123.479C160.877 139.295 145.505 153.173 145.505 153.173L146.162 161.41L145.021 164.677L145.167 166.511L146.724 168.454L146.884 170.463L145.505 173.641L147.381 176.685L107.943 172.857L106.501 167.594L108.605 164.768L107.429 161.081L109.196 157.536L110.117 146.273C110.117 146.273 100.039 131.105 111.608 119.681L116.252 111.773L121.447 105.422L126.886 94.938Z" fill="#F47222"/>
<path d="M134.507 91.7553C143.478 91.7553 150.751 84.4692 150.751 75.4814C150.751 66.4936 143.478 59.2075 134.507 59.2075C125.535 59.2075 118.263 66.4936 118.263 75.4814C118.263 84.4692 125.535 91.7553 134.507 91.7553Z" fill="#FFB6B6"/>
<path d="M132.332 74.495C130.932 74.495 129.533 74.4555 128.135 74.3764L127.885 74.3623L127.918 74.1138C128.124 72.5605 128.008 70.9812 127.577 69.4748C126.846 71.1901 125.758 72.7295 124.386 73.9903L124.308 74.0614L124.204 74.05C120.407 73.6338 116.644 72.9463 112.944 71.9926L112.802 71.9563L112.774 71.8127C112.497 70.4533 112.354 69.0702 112.347 67.6829C112.347 63.3493 113.915 59.702 116.763 57.4126C119.862 54.9207 124.306 54.1543 129.278 55.2535H145.18C146.928 55.2554 148.604 55.952 149.84 57.1904C151.076 58.4288 151.771 60.1078 151.773 61.8591V71.9469L151.6 71.9924C145.31 73.6483 138.835 74.4893 132.332 74.495Z" fill="#2F2E41"/>
<path d="M21.4895 56.393C20.7777 56.6539 20.1982 57.1869 19.8782 57.8752C19.5582 58.5635 19.5238 59.3509 19.7825 60.0646L36.9365 107.219C37.1968 107.932 37.7289 108.513 38.4159 108.833C39.103 109.154 39.8889 109.189 40.6013 108.929L107.179 84.6215C107.891 84.3607 108.47 83.8277 108.79 83.1393C109.11 82.451 109.145 81.6636 108.886 80.9499L91.7319 33.7954C91.4716 33.0823 90.9395 32.5017 90.2525 32.1811C89.5654 31.8604 88.7794 31.8259 88.067 32.0851L21.4895 56.393Z" fill="#CCCCCC"/>
<path d="M82.4001 91.0688L41.6478 105.948C40.881 106.227 40.0351 106.19 39.2956 105.844C38.5562 105.499 37.9835 104.875 37.7034 104.107L22.1449 61.3383C21.8664 60.5701 21.9034 59.7227 22.2478 58.9818C22.5923 58.241 23.216 57.6673 23.9821 57.3866L86.7975 34.4523C87.5642 34.1733 88.4102 34.2104 89.1497 34.5555C89.8891 34.9006 90.4618 35.5255 90.742 36.293L98.2597 56.9584C100.663 63.5891 100.343 70.9042 97.3703 77.2989C94.397 83.6937 89.0133 88.6457 82.4001 91.0688V91.0688Z" fill="white"/>
<path d="M53.0766 60.1719L43.3925 63.7077C43.2711 63.752 43.1421 63.7719 43.013 63.7664C42.8838 63.7608 42.757 63.7297 42.6399 63.6751C42.5227 63.6204 42.4174 63.5431 42.3301 63.4477C42.2427 63.3523 42.1749 63.2405 42.1307 63.1188C42.0864 62.9972 42.0665 62.868 42.0721 62.7386C42.0777 62.6092 42.1087 62.4822 42.1632 62.3648C42.2178 62.2474 42.2949 62.142 42.3902 62.0545C42.4855 61.9669 42.597 61.8991 42.7184 61.8547L47.5605 60.0868L52.4026 58.319C52.6478 58.2294 52.9186 58.2412 53.1552 58.3516C53.3918 58.462 53.575 58.6621 53.6644 58.9078C53.7538 59.1535 53.7421 59.4247 53.6319 59.6618C53.5216 59.8989 53.3219 60.0824 53.0766 60.1719Z" fill="#F47222"/>
<path d="M76.1637 56.0353L44.771 67.497C44.6495 67.5415 44.5204 67.5616 44.3912 67.5561C44.262 67.5506 44.1351 67.5197 44.0178 67.465C43.9005 67.4104 43.7951 67.3331 43.7076 67.2376C43.6201 67.1422 43.5523 67.0303 43.508 66.9086C43.4637 66.7868 43.4438 66.6575 43.4495 66.528C43.4551 66.3985 43.4861 66.2715 43.5408 66.154C43.5955 66.0366 43.6728 65.9311 43.7682 65.8436C43.8636 65.7561 43.9753 65.6883 44.0969 65.644L75.4897 54.1823C75.6111 54.138 75.7401 54.118 75.8692 54.1236C75.9984 54.1292 76.1251 54.1602 76.2423 54.2149C76.3595 54.2696 76.4648 54.3469 76.5521 54.4423C76.6395 54.5377 76.7072 54.6495 76.7515 54.7711C76.7958 54.8928 76.8157 55.022 76.8101 55.1514C76.8045 55.2808 76.7735 55.4078 76.719 55.5251C76.6644 55.6425 76.5873 55.748 76.492 55.8355C76.3967 55.9231 76.2852 55.9909 76.1637 56.0353Z" fill="#F47222"/>
<path d="M77.7461 60.3849L46.3533 71.8466C46.2319 71.891 46.1029 71.9109 45.9737 71.9053C45.8446 71.8997 45.7178 71.8687 45.6007 71.814C45.4835 71.7593 45.3782 71.6821 45.2909 71.5866C45.2035 71.4912 45.1357 71.3795 45.0915 71.2578C45.0472 71.1361 45.0273 71.0069 45.0329 70.8775C45.0385 70.7482 45.0694 70.6212 45.124 70.5038C45.1786 70.3864 45.2557 70.2809 45.351 70.1934C45.4463 70.1059 45.5578 70.038 45.6792 69.9937L77.072 58.5319C77.3172 58.4428 77.5877 58.4547 77.8241 58.5652C78.0604 58.6757 78.2434 58.8757 78.3327 59.1212C78.422 59.3667 78.4104 59.6377 78.3004 59.8746C78.1904 60.1116 77.991 60.2951 77.7461 60.3849Z" fill="#F47222"/>
<path d="M79.3284 64.7345L47.9356 76.1962C47.8141 76.2408 47.6851 76.2609 47.5558 76.2554C47.4266 76.2499 47.2997 76.219 47.1824 76.1643C47.0651 76.1097 46.9597 76.0324 46.8722 75.9369C46.7848 75.8414 46.7169 75.7296 46.6727 75.6078C46.6284 75.4861 46.6085 75.3567 46.6141 75.2273C46.6197 75.0978 46.6508 74.9707 46.7055 74.8533C46.7602 74.7358 46.8374 74.6303 46.9328 74.5428C47.0283 74.4553 47.1399 74.3875 47.2615 74.3433L78.6543 62.8816C78.7757 62.8372 78.9047 62.8173 79.0339 62.8229C79.163 62.8285 79.2898 62.8595 79.4069 62.9142C79.5241 62.9688 79.6294 63.0461 79.7168 63.1415C79.8041 63.237 79.8719 63.3487 79.9161 63.4704C79.9604 63.5921 79.9803 63.7213 79.9747 63.8506C79.9691 63.98 79.9382 64.107 79.8836 64.2244C79.829 64.3418 79.7519 64.4472 79.6566 64.5348C79.5614 64.6223 79.4498 64.6902 79.3284 64.7345Z" fill="#F47222"/>
<path d="M80.9107 69.0841L49.5179 80.5459C49.2727 80.6354 49.0019 80.6237 48.7653 80.5133C48.5286 80.4028 48.3455 80.2028 48.2561 79.957C48.1667 79.7113 48.1784 79.4401 48.2886 79.203C48.3989 78.966 48.5986 78.7825 48.8438 78.6929L80.2366 67.2312C80.3581 67.1868 80.487 67.1669 80.6162 67.1725C80.7453 67.1781 80.8721 67.2091 80.9893 67.2638C81.1064 67.3185 81.2117 67.3957 81.2991 67.4912C81.3864 67.5866 81.4542 67.6984 81.4985 67.82C81.5427 67.9417 81.5626 68.0709 81.557 68.2003C81.5514 68.3296 81.5205 68.4567 81.4659 68.574C81.4113 68.6914 81.3342 68.7969 81.2389 68.8844C81.1437 68.9719 81.0321 69.0398 80.9107 69.0841Z" fill="#F47222"/>
<path d="M180.52 81.164L163.332 122.369C162.599 124.113 161.211 125.498 159.467 126.225C157.724 126.952 155.765 126.964 154.013 126.256C153.107 125.891 152.284 125.344 151.596 124.649C150.907 123.955 150.367 123.127 150.009 122.217C149.65 121.306 149.48 120.332 149.51 119.354C149.539 118.375 149.767 117.413 150.18 116.526L169.343 74.2719L179.908 48.105C178.995 47.1929 178.384 46.0213 178.159 44.7495C177.934 43.4777 178.105 42.1673 178.649 40.9963C179.194 39.8254 180.084 38.8506 181.201 38.2045C182.317 37.5584 183.605 37.2722 184.889 37.3849C186.174 37.4976 187.392 38.0037 188.38 38.8344C189.367 39.6651 190.075 40.7801 190.408 42.028C190.74 43.2759 190.682 44.5962 190.239 45.8094C189.797 47.0227 188.992 48.0701 187.935 48.8093L180.52 81.164Z" fill="#FFB6B6"/>
</g>
<defs>
<clipPath id="clip0_4_90">
<rect width="219" height="249" fill="white"/>
</clipPath>
</defs>
</svg>
