<svg width="373" height="665" viewBox="0 0 373 665" fill="none" xmlns="http://www.w3.org/2000/svg">
<g clip-path="url(#clip0_6_2)">
<path d="M272.772 0H64.2284C31.7936 0 5.5 26.2936 5.5 58.7284V535.272C5.5 567.706 31.7936 594 64.2284 594H272.772C305.206 594 331.5 567.706 331.5 535.272V58.7284C331.5 26.2936 305.206 0 272.772 0Z" fill="#F47222"/>
<path d="M272.772 0H64.2284C31.7936 0 5.5 26.2936 5.5 58.7284V535.272C5.5 567.706 31.7936 594 64.2284 594H272.772C305.206 594 331.5 567.706 331.5 535.272V58.7284C331.5 26.2936 305.206 0 272.772 0Z" fill="black" fill-opacity="0.8"/>
<path d="M326 58.7323V535.272C325.984 549.385 320.371 562.915 310.392 572.894C300.413 582.873 286.883 588.486 272.771 588.502H64.2305C50.118 588.486 36.5882 582.873 26.6092 572.894C16.6302 562.915 11.0168 549.385 11.0005 535.272V58.7323C11.0168 44.6199 16.6302 31.0901 26.6092 21.1111C36.5882 11.132 50.118 5.51866 64.2305 5.50232H91.5005V14.9223C91.5007 19.1869 93.1949 23.2768 96.2105 26.2923C99.226 29.3079 103.316 31.0021 107.581 31.0023C142.885 41.6672 184.327 40.0026 229.42 31.0023C233.685 31.0021 237.775 29.3079 240.79 26.2923C243.806 23.2768 245.5 19.1869 245.5 14.9223V5.50232H272.771C286.883 5.51866 300.413 11.132 310.392 21.1111C320.371 31.0901 325.984 44.6199 326 58.7323Z" fill="white"/>
<path d="M4 120.5C2.93951 120.499 1.92279 120.077 1.17291 119.327C0.42303 118.577 0.00121483 117.56 0 116.5V108.5C0 107.439 0.421424 106.422 1.17157 105.672C1.92172 104.921 2.93913 104.5 4 104.5C5.06087 104.5 6.07828 104.921 6.82843 105.672C7.57858 106.422 8 107.439 8 108.5V116.5C7.99879 117.56 7.57697 118.577 6.82709 119.327C6.0772 120.077 5.06049 120.499 4 120.5V120.5Z" fill="#3F3D56"/>
<path d="M4.00003 161.521C2.93954 161.52 1.92283 161.098 1.17294 160.349C0.42306 159.599 0.0012427 158.582 3.05176e-05 157.521V135.5C3.05176e-05 134.439 0.421455 133.422 1.1716 132.672C1.92175 131.921 2.93916 131.5 4.00003 131.5C5.0609 131.5 6.07832 131.921 6.82846 132.672C7.57861 133.422 8.00003 134.439 8.00003 135.5V157.521C7.99882 158.582 7.577 159.599 6.82712 160.349C6.07724 161.098 5.06052 161.52 4.00003 161.521V161.521Z" fill="#3F3D56"/>
<path d="M4.00003 194.5C2.93954 194.499 1.92283 194.077 1.17294 193.327C0.42306 192.577 0.0012427 191.56 3.05176e-05 190.5V168.479C3.05176e-05 167.418 0.421455 166.4 1.1716 165.65C1.92175 164.9 2.93916 164.479 4.00003 164.479C5.0609 164.479 6.07832 164.9 6.82846 165.65C7.57861 166.4 8.00003 167.418 8.00003 168.479V190.5C7.99882 191.56 7.577 192.577 6.82712 193.327C6.07724 194.077 5.06052 194.499 4.00003 194.5V194.5Z" fill="#3F3D56"/>
<path d="M332.001 114.772C330.942 114.771 329.926 115.191 329.176 115.939C328.426 116.687 328.003 117.703 328.001 118.762V172.502C328.001 173.563 328.423 174.58 329.173 175.33C329.923 176.081 330.941 176.502 332.001 176.502C333.062 176.502 334.08 176.081 334.83 175.33C335.58 174.58 336.001 173.563 336.001 172.502V118.762C335.998 117.703 335.575 116.689 334.825 115.941C334.076 115.193 333.06 114.773 332.001 114.772V114.772Z" fill="#3F3D56"/>
<path d="M79.5859 29.0731H52.5859C51.2598 29.0731 49.9881 28.5463 49.0504 27.6086C48.1127 26.6709 47.5859 25.3991 47.5859 24.0731C47.5859 22.747 48.1127 21.4752 49.0504 20.5375C49.9881 19.5998 51.2598 19.0731 52.5859 19.0731H79.5859C80.912 19.0731 82.1837 19.5998 83.1214 20.5375C84.0591 21.4752 84.5859 22.747 84.5859 24.0731C84.5859 25.3991 84.0591 26.6709 83.1214 27.6086C82.1837 28.5463 80.912 29.0731 79.5859 29.0731V29.0731Z" fill="#E6E6E6"/>
<path d="M236.459 529.727C228.935 530.199 224.776 520.85 230.469 515.402C230.677 514.573 230.827 513.979 231.035 513.15C230.961 512.97 230.886 512.79 230.81 512.61C223.201 494.465 207.793 504.651 189.868 512.762C175.083 519.451 160.181 528.166 172.546 562.098C175.144 569.226 172.029 577.294 173.699 584.681C157.971 550.372 149.804 513.083 149.751 475.341C149.748 465.87 150.274 456.407 151.328 446.995C152.198 439.279 153.406 431.618 154.95 424.012C161.438 392.356 173.607 362.137 190.868 334.819C188.671 334.848 186.47 334.872 184.266 334.89C180.299 341.367 176.602 347.997 173.176 354.781C173.961 348.194 174.09 341.545 173.561 334.932C146.83 334.922 120.119 334.067 96.5027 332.367C97.3985 404.746 124.116 419.839 156.879 385.174C157.797 385.644 158.691 386.114 159.608 386.562C151.716 408.926 146.766 432.222 144.882 455.863C143.815 469.811 143.878 483.822 145.07 497.76C145.047 497.595 145.023 497.43 145 497.266C141.988 481.767 133.721 467.783 121.593 457.675C103.581 442.878 78.1322 437.429 58.6998 425.535C49.3456 419.81 37.3589 427.209 38.9915 438.054C39.0176 438.227 39.0441 438.4 39.071 438.573C41.9678 439.753 44.7883 441.112 47.5161 442.643C49.077 443.523 50.6051 444.458 52.1002 445.447C60.6208 451.082 57.6761 464.291 47.58 465.849L47.3512 465.884C47.1866 465.908 47.0454 465.932 46.881 465.955C51.8305 477.773 58.7774 488.651 67.4173 498.112C69.8264 572.45 108.939 562.865 150.786 534.692H150.81C155.06 553.159 161.217 571.134 169.182 588.327H234.814C235.05 587.598 235.261 586.845 235.473 586.116C229.398 586.498 223.299 586.134 217.312 585.034C222.182 579.059 227.051 573.036 231.921 567.061C232.03 566.95 232.132 566.832 232.227 566.709C234.697 563.65 237.19 560.616 239.66 557.558L239.662 557.554C239.793 548.18 238.718 538.828 236.461 529.729L236.459 529.727Z" fill="#F47222"/>
<path d="M166.524 303.028C160.157 287.668 148.223 274.731 137.713 261.453C125.09 245.503 99.2036 252.464 96.9796 272.682C96.958 272.878 96.937 273.074 96.9166 273.27C98.4776 274.15 100.006 275.085 101.501 276.074C110.021 281.709 107.077 294.918 96.9805 296.476L96.752 296.511C97.308 302.137 98.291 307.713 99.6924 313.19C98.0164 319.465 96.9483 325.887 96.5028 332.367C120.119 334.067 146.83 334.922 173.561 334.932C172.695 323.175 170.08 311.599 166.524 303.028Z" fill="#E6E6E6"/>
<path d="M235.237 283.562C237.58 278.901 239.237 273.925 240.154 268.789C238.719 268.977 234.743 247.123 235.826 245.782C233.826 242.748 230.247 241.239 228.063 238.278C217.201 223.552 202.236 226.123 194.423 246.135C177.734 254.558 177.573 268.527 187.813 281.962C194.328 290.51 195.223 302.075 200.939 311.226C200.351 311.979 199.74 312.708 199.152 313.461C193.068 321.28 187.431 329.436 182.266 337.89C184.47 337.872 186.67 337.848 188.868 337.819C194.052 329.617 199.692 321.713 205.762 314.143C218.482 307.203 228.77 296.529 235.237 283.562V283.562Z" fill="#E6E6E6"/>
<path opacity="0.1" d="M325.339 58.5158V313.056C325.339 342.406 10.3387 342.406 10.3387 313.056V58.5158C10.355 44.4034 15.9684 30.8736 25.9474 20.8946C35.9264 10.9156 49.4562 5.30217 63.5687 5.28583H90.8387V14.7058C90.8389 18.9704 92.5331 23.0603 95.5487 26.0758C98.5642 29.0914 102.654 30.7856 106.919 30.7858C140.724 41.4031 182.458 39.6553 228.759 30.7858C233.023 30.7856 237.113 29.0914 240.129 26.0758C243.144 23.0603 244.838 18.9704 244.839 14.7058V5.28583H272.109C286.221 5.30217 299.751 10.9156 309.73 20.8946C319.709 30.8736 325.322 44.4034 325.339 58.5158Z" fill="#F47222"/>
<path d="M197.791 86.022H188.791C185.345 86.0258 182.04 87.3967 179.603 89.8338C177.166 92.2709 175.795 95.5753 175.791 99.022V109.022H159.791C156.345 109.026 153.04 110.397 150.603 112.834C148.166 115.271 146.795 118.575 146.791 122.022V142.022C146.795 145.469 148.166 148.773 150.603 151.21C153.04 153.647 156.345 155.018 159.791 155.022H179.791C183.238 155.018 186.542 153.647 188.98 151.21C191.417 148.773 192.788 145.469 192.791 142.022V122.022C192.788 118.575 191.417 115.271 188.98 112.834C186.542 110.397 183.238 109.026 179.791 109.022H177.791V99.022C177.795 96.1056 178.955 93.3096 181.017 91.2475C183.079 89.1853 185.875 88.0253 188.791 88.022H197.791C200.708 88.0253 203.504 89.1853 205.566 91.2475C207.628 93.3096 208.788 96.1056 208.791 99.022V110.022H210.791V99.022C210.788 95.5753 209.417 92.271 206.98 89.8338C204.542 87.3967 201.238 86.0258 197.791 86.022V86.022ZM190.791 122.022V142.022C190.788 144.938 189.628 147.734 187.566 149.797C185.504 151.859 182.708 153.019 179.791 153.022H159.791C156.875 153.019 154.079 151.859 152.017 149.797C149.955 147.734 148.795 144.938 148.791 142.022V122.022C148.795 119.106 149.955 116.31 152.017 114.247C154.079 112.185 156.875 111.025 159.791 111.022C169.261 116.531 174.478 113.682 179.791 111.022C182.708 111.025 185.504 112.185 187.566 114.247C189.628 116.31 190.788 119.106 190.791 122.022V122.022Z" fill="white"/>
<path d="M169.791 141.022C171.571 141.022 173.311 140.494 174.791 139.505C176.272 138.516 177.425 137.111 178.106 135.466C178.787 133.822 178.966 132.012 178.618 130.266C178.271 128.52 177.414 126.917 176.155 125.658C174.897 124.399 173.293 123.542 171.547 123.195C169.801 122.848 167.992 123.026 166.347 123.707C164.703 124.388 163.297 125.542 162.308 127.022C161.319 128.502 160.791 130.242 160.791 132.022C160.794 134.408 161.743 136.696 163.43 138.383C165.118 140.07 167.405 141.019 169.791 141.022V141.022ZM169.791 130.022C173.651 130.022 176.791 128.162 176.791 132.022C176.791 133.878 176.054 135.659 174.741 136.972C173.428 138.284 171.648 139.022 169.791 139.022C167.935 139.022 166.154 138.284 164.842 136.972C163.529 135.659 162.791 133.878 162.791 132.022C162.791 128.162 165.931 130.022 169.791 130.022V130.022Z" fill="white"/>
<path d="M169.791 135.022C171.448 135.022 172.791 133.679 172.791 132.022C172.791 130.365 171.448 129.022 169.791 129.022C168.135 129.022 166.791 130.365 166.791 132.022C166.791 133.679 168.135 135.022 169.791 135.022Z" fill="white"/>
<path d="M336.001 144.022H328.791V146.022H336.001V144.022Z" fill="white"/>
<path opacity="0.1" d="M10.7914 308.074V313.074C10.7914 342.424 325.791 342.424 325.791 313.074V308.074C325.791 337.425 10.7914 337.425 10.7914 308.074Z" fill="black"/>
<path d="M289.019 379.618C290.975 379.219 292.699 378.073 293.823 376.423C294.947 374.773 295.383 372.749 295.038 370.782C294.961 370.384 294.852 369.992 294.711 369.612L315.2 352.429L310.139 338.965L284.617 365.538C283.084 366.245 281.828 367.439 281.045 368.935C280.263 370.431 279.998 372.144 280.291 373.806C280.646 375.713 281.745 377.401 283.344 378.498C284.944 379.596 286.915 380.013 288.822 379.657V379.657C288.888 379.645 288.953 379.632 289.019 379.618Z" fill="#A0616A"/>
<path d="M298.666 278.228L290.541 284.707C290.541 284.707 280.831 302.361 287.791 306.022C294.752 309.683 316.389 321.86 316.389 321.86C316.389 321.86 307.447 330.762 306.392 335.086C305.337 339.41 307.672 343.251 303.966 342.347C300.26 341.443 300.154 344.387 299.25 348.093C298.346 351.799 292.319 355.212 292.319 355.212L303.839 363.712C303.839 363.712 309.171 365.595 309.608 361.121C310.045 356.646 308.831 357.277 312.537 358.182C316.243 359.086 319.366 353.286 321.34 347.878C323.314 342.469 343.454 317.296 343.454 317.296L322.382 293.847C315.95 286.69 307.782 281.31 298.666 278.228V278.228Z" fill="#F47222"/>
<path d="M296.815 645.673L288.426 645.602L284.713 612.491L297.094 612.596L296.815 645.673Z" fill="#A0616A"/>
<path d="M269.945 659.012C269.938 660.007 270.325 660.963 271.022 661.673C271.719 662.382 272.669 662.786 273.663 662.796L290.342 662.935L293.262 657.016L294.334 662.965L300.627 663.022L299.038 641.805L296.849 641.66L287.918 641.044L285.037 640.851L284.986 646.854L271.588 655.942C271.087 656.282 270.675 656.74 270.389 657.274C270.102 657.809 269.95 658.406 269.945 659.012V659.012Z" fill="#2F2E41"/>
<path d="M219.799 645.673L211.411 645.602L207.697 612.491L220.078 612.596L219.799 645.673Z" fill="#A0616A"/>
<path d="M192.93 659.012C192.922 660.007 193.309 660.963 194.006 661.673C194.704 662.382 195.653 662.786 196.648 662.796L213.327 662.935L216.246 657.016L217.319 662.965L223.612 663.022L222.023 641.805L219.833 641.66L210.903 641.044L208.022 640.851L207.971 646.854L194.573 655.942C194.071 656.282 193.659 656.74 193.373 657.274C193.087 657.809 192.935 658.406 192.93 659.012V659.012Z" fill="#2F2E41"/>
<path d="M241.502 365.287C241.502 365.287 225.395 373.222 229.594 377.998C233.793 382.775 230.342 385.476 225.107 389.962C219.873 394.448 209.336 447.002 209.336 447.002L195.692 528.411C195.692 528.411 199.312 599.495 201.742 602.027C204.171 604.558 207.91 600.82 204.171 604.559C200.433 608.297 197.442 605.306 200.433 608.297C203.424 611.288 204.171 619.513 204.171 619.513L223.547 617.88C223.547 617.88 236.159 563.241 227.643 539.036L261.054 450.492L271.156 535.928C271.156 535.928 276.7 605.306 280.439 607.549C284.178 609.793 286.871 609.944 283.655 612.859C280.439 615.774 280.439 611.288 280.439 615.774V623.216L298.526 625.698C298.526 625.698 306.927 559.188 303.03 528.411L314.834 425.105L305.639 378.552L296.141 366.035L241.502 365.287Z" fill="#181818"/>
<path d="M163.774 340.108C165.386 341.285 167.394 341.787 169.371 341.507C171.348 341.226 173.137 340.185 174.358 338.605C174.601 338.28 174.817 337.936 175.004 337.575L201.504 341.145L208.047 328.335L171.215 327.37C169.66 326.713 167.931 326.59 166.299 327.019C164.666 327.448 163.222 328.406 162.19 329.742C161.611 330.508 161.188 331.381 160.946 332.311C160.704 333.24 160.647 334.209 160.779 335.16C160.911 336.112 161.229 337.028 161.715 337.856C162.201 338.685 162.846 339.41 163.612 339.989V339.989C163.665 340.029 163.719 340.069 163.774 340.108Z" fill="#A0616A"/>
<path d="M245.211 278.945L234.949 277.304C234.949 277.304 222.633 284.028 224.615 291.639C226.597 299.249 224.9 321.433 224.9 321.433C224.9 321.433 212.296 320.82 208.39 322.953C204.484 325.086 203.217 329.399 201.389 326.051C199.561 322.703 201.488 320.926 198.14 322.754C194.792 324.582 184.035 326.109 184.035 326.109L179.711 340.832C179.711 340.832 185.719 349.094 189.32 346.403C192.922 343.712 193.631 339.704 195.459 343.052C197.287 346.4 197.797 352.641 203.124 350.457C208.451 348.273 246.503 338.363 246.503 338.363L251.102 292.389L245.211 278.945Z" fill="#F47222"/>
<path d="M235.196 376.638C235.196 376.638 227.951 365.075 229.33 363.38C230.71 361.684 232.437 364.615 229.33 361.654C226.223 358.693 243.647 338.932 244.791 336.022C245.936 333.112 227.351 282.29 227.351 282.29L243.179 272.756L256.557 253.935L280.483 257.763L288.901 274.827L300.791 279.022L301.791 280.022V311.022C301.791 311.022 307.083 337.483 295.44 346.592C295.44 346.592 300.995 358.693 299.5 360.936C298.005 363.179 324.893 392.655 303.791 396.022C280.677 399.71 231.374 375.331 235.196 376.638Z" fill="#F47222"/>
<path d="M116.523 663.274C116.523 663.43 116.553 663.585 116.613 663.73C116.673 663.875 116.76 664.006 116.871 664.117C116.981 664.227 117.113 664.315 117.257 664.374C117.402 664.434 117.557 664.464 117.713 664.464H371.003C371.319 664.464 371.622 664.339 371.845 664.115C372.068 663.892 372.193 663.59 372.193 663.274C372.193 662.958 372.068 662.656 371.845 662.433C371.622 662.209 371.319 662.084 371.003 662.084H117.713C117.557 662.084 117.402 662.114 117.257 662.174C117.113 662.233 116.981 662.321 116.871 662.431C116.76 662.542 116.673 662.673 116.613 662.818C116.553 662.963 116.523 663.118 116.523 663.274Z" fill="#CCCCCC"/>
<path d="M272.045 258.646C285.5 258.646 296.408 247.739 296.408 234.283C296.408 220.828 285.5 209.92 272.045 209.92C258.589 209.92 247.682 220.828 247.682 234.283C247.682 247.739 258.589 258.646 272.045 258.646Z" fill="#A0616A"/>
<path d="M290.871 216.272C290.62 214.079 289.117 211.369 288.072 209.425C287.027 207.482 285.008 205.895 282.805 206.03C281.905 206.134 281.044 206.455 280.294 206.964C279.545 207.473 278.93 208.156 278.502 208.955C277.661 210.562 277.203 212.342 277.163 214.156C276.933 218.203 277.608 222.25 279.141 226.002C280.673 229.755 283.024 233.118 286.021 235.847C287.728 237.378 289.783 238.741 292.076 238.793C293.118 238.768 294.144 238.535 295.094 238.108C296.044 237.681 296.899 237.068 297.608 236.305C301.32 232.588 301.881 226.477 299.899 221.612C297.916 216.747 297.032 214.854 292.501 212.197" fill="#2F2E41"/>
<path d="M256.645 251.312C257.053 253.479 253.304 263.788 254.502 265.646C254.502 265.646 266.906 269.954 271.649 270.264C277.442 270.638 282.102 268.261 287.521 264.684C287.62 262.743 288.181 260.855 289.159 259.175C289.077 260.476 289.342 261.775 289.925 262.94C310.221 257.898 305.253 239.685 292.994 231.152L284.846 212.41C287.29 213.225 279.91 200.634 272.128 209.753C262.39 199.835 243.526 214.112 241.162 226.865C243.437 223.987 244.621 224.326 245.205 226.311C245.875 224.641 246.937 223.157 248.301 221.984C247.623 223.325 247.276 224.809 247.29 226.311C262.651 227.264 259.792 237.627 247.202 253.151C251.858 250.253 248.716 262.742 251.202 265.727C251.324 263.641 256.205 253.341 256.645 251.312Z" fill="#2F2E41"/>
<path d="M278.812 231.353C279.009 231.352 279.199 231.281 279.347 231.152C279.495 231.023 279.591 230.845 279.618 230.65C279.645 230.455 279.601 230.258 279.494 230.093C279.387 229.928 279.224 229.808 279.035 229.754C278.86 228.751 278.841 227.727 278.979 226.719C279.244 222.217 279.688 214.684 272.373 209.598C272.196 209.476 271.977 209.429 271.765 209.467C271.553 209.506 271.365 209.626 271.242 209.803C271.119 209.98 271.071 210.199 271.108 210.411C271.146 210.624 271.267 210.812 271.443 210.936C278.007 215.5 277.613 222.194 277.352 226.623C277.203 229.155 277.095 230.984 278.631 231.332C278.691 231.346 278.751 231.353 278.812 231.353V231.353Z" fill="#6C63FF"/>
<path d="M278.432 213.543C283.406 211.478 288.704 210.304 294.084 210.074C298.351 209.893 303.442 210.845 305.177 214.748C306.229 217.115 305.669 219.891 304.706 222.297C303.743 224.702 299.244 229.559 301.835 229.506C308.342 229.373 311.119 235.191 307.818 244.232C305.904 249.476 317.782 249.274 323.32 249.976C319.159 251.519 314.935 253.078 310.513 253.448C306.09 253.818 301.368 252.857 298.066 249.892C294.493 246.683 293.12 241.7 292.512 236.936C291.904 232.172 291.873 227.266 290.258 222.744C288.643 218.221 284.934 214.009 280.149 213.608" fill="#2F2E41"/>
<path d="M284.76 185.87C288.618 185.87 291.745 182.743 291.745 178.885C291.745 175.028 288.618 171.901 284.76 171.901C280.902 171.901 277.775 175.028 277.775 178.885C277.775 182.743 280.902 185.87 284.76 185.87Z" fill="#F47222"/>
<path d="M284.012 106.001C278.746 106.053 273.709 108.158 269.972 111.868C266.235 115.577 264.093 120.599 264.002 125.864C264.001 125.965 264 126.674 264 127.601C264 128.959 264.54 130.263 265.501 131.224C266.462 132.185 267.765 132.725 269.124 132.725V132.725C270.484 132.724 271.788 132.184 272.749 131.222C273.711 130.26 274.251 128.956 274.25 127.596V127.593C274.25 126.962 274.249 126.526 274.249 126.499C274.249 124.812 274.688 123.154 275.523 121.688C276.357 120.222 277.559 118.999 279.011 118.138C280.462 117.278 282.112 116.81 283.798 116.78C285.485 116.751 287.15 117.161 288.631 117.971C290.111 118.78 291.354 119.961 292.24 121.397C293.125 122.833 293.621 124.475 293.68 126.161C293.738 127.847 293.357 129.519 292.573 131.013C291.789 132.506 290.63 133.77 289.209 134.68L289.211 134.683C289.211 134.683 281.918 139.378 279.695 145.818L279.697 145.819C279.306 147.138 279.108 148.507 279.108 149.883C279.108 150.449 279.142 155.398 279.206 159.416C279.229 160.802 279.795 162.123 280.783 163.096C281.772 164.068 283.102 164.612 284.489 164.612V164.612C285.183 164.612 285.87 164.475 286.511 164.21C287.152 163.944 287.734 163.555 288.225 163.064C288.715 162.574 289.105 161.991 289.37 161.35C289.636 160.709 289.772 160.022 289.772 159.328L289.772 159.296C289.75 155.617 289.738 151.333 289.738 151.022C289.738 147.067 293.553 143.127 296.687 140.557C300.314 137.619 302.864 133.56 303.935 129.017C304.166 128.081 304.293 127.122 304.315 126.157C304.315 123.51 303.793 120.889 302.78 118.443C301.767 115.998 300.283 113.776 298.411 111.904C296.539 110.032 294.317 108.547 291.871 107.534C289.426 106.521 286.804 106 284.157 106C284.109 106 284.06 106 284.012 106.001Z" fill="#F47222"/>
</g>
<defs>
<clipPath id="clip0_6_2">
<rect width="372.193" height="664.464" fill="white"/>
</clipPath>
</defs>
</svg>
