<svg width="676" height="632" viewBox="0 0 676 632" fill="none" xmlns="http://www.w3.org/2000/svg">
<path d="M463.998 260.866C464.019 289.733 457.276 318.203 444.309 343.993C431.342 369.784 412.511 392.177 389.328 409.376C387.778 410.536 386.198 411.666 384.608 412.766C353.606 434.316 316.754 445.866 278.998 445.866C241.242 445.866 204.39 434.316 173.388 412.766C171.798 411.666 170.218 410.536 168.668 409.376C145.5 392.161 126.682 369.766 113.716 343.979C100.75 318.192 93.9978 289.729 93.9978 260.866C93.9978 232.003 100.75 203.54 113.716 177.753C126.682 151.966 145.5 129.57 168.668 112.356C170.218 111.196 171.798 110.066 173.388 108.966C204.39 87.4161 241.242 75.866 278.998 75.866C316.754 75.866 353.606 87.4161 384.608 108.966C386.198 110.066 387.778 111.196 389.328 112.356C412.511 129.555 431.342 151.948 444.309 177.739C457.276 203.529 464.019 231.999 463.998 260.866V260.866Z" fill="white"/>
<path d="M278.998 429.866C372.334 429.866 447.998 354.202 447.998 260.866C447.998 167.53 372.334 91.866 278.998 91.866C185.662 91.866 109.998 167.53 109.998 260.866C109.998 354.202 185.662 429.866 278.998 429.866Z" fill="#F47222"/>
<path opacity="0.2" d="M279.439 92.3384C276.877 92.3384 274.33 92.4054 271.796 92.5182C314.51 96.2716 354.2 116.121 382.825 148.046C411.45 179.97 426.87 221.582 425.96 264.45C425.05 307.319 407.879 348.239 377.925 378.92C347.971 409.601 307.474 427.749 264.64 429.686C269.518 430.109 274.451 430.338 279.439 430.338C324.26 430.338 367.246 412.533 398.94 380.839C430.633 349.146 448.439 306.16 448.439 261.338C448.439 216.517 430.633 173.531 398.94 141.837C367.246 110.144 324.26 92.3384 279.439 92.3384V92.3384Z" fill="black"/>
<path d="M279.498 79.866C278.04 79.8685 276.642 80.4488 275.612 81.4797C274.581 82.5106 274 83.9081 273.998 85.366V109.366C273.998 110.825 274.577 112.224 275.609 113.255C276.64 114.287 278.039 114.866 279.498 114.866C280.956 114.866 282.355 114.287 283.387 113.255C284.418 112.224 284.998 110.825 284.998 109.366V85.366C284.995 83.9081 284.415 82.5106 283.384 81.4797C282.353 80.4488 280.956 79.8685 279.498 79.866V79.866Z" fill="white"/>
<path d="M389.328 112.356C387.778 111.196 386.198 110.066 384.608 108.966C383.654 108.904 382.7 109.092 381.841 109.511C380.981 109.93 380.246 110.566 379.708 111.356L366.198 131.186C365.377 132.391 365.069 133.874 365.341 135.306C365.613 136.739 366.443 138.005 367.648 138.826C368.853 139.647 370.335 139.955 371.768 139.683C373.201 139.411 374.467 138.581 375.288 137.376L388.798 117.546C389.312 116.794 389.63 115.925 389.722 115.018C389.815 114.112 389.679 113.197 389.328 112.356V112.356Z" fill="white"/>
<path d="M450.708 202.776C450.436 202.107 450.035 201.499 449.528 200.985C449.021 200.472 448.418 200.063 447.753 199.782C447.088 199.502 446.375 199.355 445.653 199.351C444.931 199.346 444.216 199.484 443.548 199.756L421.308 208.786C419.958 209.336 418.881 210.399 418.315 211.742C417.749 213.086 417.739 214.599 418.287 215.949C418.836 217.3 419.898 218.377 421.241 218.945C422.584 219.512 424.097 219.523 425.448 218.976L447.688 209.946C449.037 209.393 450.112 208.328 450.678 206.985C451.244 205.641 451.255 204.128 450.708 202.776Z" fill="white"/>
<path d="M191.798 131.186L178.288 111.356C177.749 110.566 177.014 109.93 176.155 109.511C175.296 109.092 174.342 108.904 173.388 108.966C171.798 110.066 170.218 111.196 168.668 112.356C168.316 113.197 168.181 114.112 168.273 115.018C168.366 115.925 168.684 116.794 169.198 117.546L182.708 137.376C183.529 138.581 184.795 139.411 186.227 139.683C187.66 139.955 189.142 139.647 190.348 138.826C191.553 138.005 192.383 136.739 192.655 135.306C192.927 133.874 192.619 132.391 191.798 131.186V131.186Z" fill="white"/>
<path d="M136.688 208.786L114.448 199.756C113.096 199.207 111.583 199.218 110.239 199.785C108.896 200.352 107.833 201.43 107.284 202.781C106.735 204.132 106.745 205.646 107.312 206.99C107.879 208.333 108.957 209.397 110.308 209.946L132.548 218.976C133.899 219.523 135.412 219.512 136.754 218.944C138.097 218.377 139.159 217.299 139.708 215.949C140.257 214.598 140.247 213.085 139.68 211.742C139.114 210.399 138.038 209.336 136.688 208.786V208.786Z" fill="white"/>
<path d="M279.498 406.866C278.04 406.869 276.642 407.449 275.612 408.48C274.581 409.511 274 410.908 273.998 412.366V436.366C273.998 437.825 274.577 439.224 275.609 440.255C276.64 441.287 278.039 441.866 279.498 441.866C280.956 441.866 282.355 441.287 283.387 440.255C284.418 439.224 284.998 437.825 284.998 436.366V412.366C284.995 410.908 284.415 409.511 283.384 408.48C282.353 407.449 280.956 406.869 279.498 406.866V406.866Z" fill="white"/>
<path d="M388.798 404.186L375.288 384.356C374.881 383.759 374.361 383.248 373.757 382.852C373.153 382.456 372.477 382.183 371.768 382.049C371.059 381.914 370.33 381.92 369.623 382.067C368.916 382.215 368.245 382.499 367.648 382.906C367.051 383.312 366.54 383.832 366.144 384.436C365.748 385.04 365.475 385.716 365.34 386.426C365.206 387.135 365.212 387.864 365.359 388.571C365.506 389.278 365.791 389.949 366.198 390.546L379.708 410.376C380.246 411.166 380.981 411.802 381.84 412.221C382.7 412.64 383.654 412.828 384.608 412.766C386.198 411.666 387.778 410.536 389.328 409.376C389.679 408.535 389.815 407.62 389.722 406.714C389.629 405.807 389.312 404.938 388.798 404.186Z" fill="white"/>
<path d="M447.688 311.786L425.448 302.756C424.097 302.207 422.583 302.218 421.239 302.785C419.896 303.352 418.833 304.43 418.284 305.781C417.735 307.132 417.745 308.646 418.312 309.99C418.879 311.333 419.957 312.397 421.308 312.946L443.548 321.976C444.899 322.523 446.412 322.512 447.755 321.944C449.097 321.377 450.16 320.299 450.708 318.949C451.257 317.598 451.247 316.085 450.681 314.742C450.114 313.399 449.038 312.336 447.688 311.786V311.786Z" fill="white"/>
<path d="M190.348 382.906C189.142 382.085 187.66 381.777 186.228 382.049C184.795 382.321 183.529 383.151 182.708 384.356L169.198 404.186C168.684 404.938 168.366 405.807 168.273 406.714C168.181 407.62 168.316 408.535 168.668 409.376C170.218 410.536 171.798 411.666 173.388 412.766C174.342 412.828 175.296 412.64 176.155 412.221C177.014 411.802 177.749 411.166 178.288 410.376L191.798 390.546C192.204 389.949 192.489 389.278 192.636 388.571C192.783 387.864 192.79 387.135 192.655 386.426C192.521 385.716 192.247 385.04 191.852 384.436C191.456 383.832 190.945 383.312 190.348 382.906V382.906Z" fill="white"/>
<path d="M139.708 305.776C139.436 305.107 139.036 304.499 138.529 303.985C138.022 303.472 137.419 303.063 136.754 302.782C136.089 302.502 135.375 302.355 134.653 302.351C133.932 302.346 133.216 302.484 132.548 302.756L110.308 311.786C108.958 312.336 107.881 313.399 107.315 314.742C106.749 316.086 106.739 317.599 107.288 318.949C107.836 320.3 108.899 321.377 110.241 321.945C111.584 322.512 113.097 322.523 114.448 321.976L136.688 312.946C138.037 312.393 139.113 311.328 139.679 309.985C140.245 308.641 140.255 307.128 139.708 305.776V305.776Z" fill="white"/>
<path d="M286.634 258.137C287.142 261.143 286.436 264.228 284.673 266.715C282.909 269.202 280.23 270.888 277.225 271.402L179.627 288.004C178.138 288.257 176.614 288.214 175.142 287.879C173.669 287.543 172.278 286.92 171.046 286.047C169.814 285.173 168.766 284.065 167.963 282.787C167.159 281.508 166.615 280.084 166.362 278.595C166.108 277.106 166.151 275.582 166.487 274.11C166.822 272.637 167.445 271.245 168.319 270.013C169.192 268.782 170.3 267.734 171.579 266.93C172.857 266.127 174.281 265.583 175.77 265.329L273.368 248.728C276.375 248.22 279.46 248.926 281.947 250.689C284.434 252.453 286.119 255.132 286.634 258.137V258.137Z" fill="#3F3D56"/>
<path d="M389.353 366.268C387.951 367.678 386.047 368.474 384.059 368.482C382.07 368.49 380.16 367.708 378.747 366.309L273.684 262.071C272.274 260.669 271.478 258.765 271.471 256.777C271.464 254.789 272.247 252.88 273.647 251.469C275.047 250.058 276.95 249.26 278.938 249.251C280.926 249.243 282.836 250.023 284.249 251.422L389.312 355.661C390.722 357.063 391.518 358.967 391.526 360.956C391.534 362.944 390.752 364.855 389.353 366.268V366.268Z" fill="#3F3D56"/>
<path d="M278.998 273.866C286.178 273.866 291.998 268.046 291.998 260.866C291.998 253.686 286.178 247.866 278.998 247.866C271.818 247.866 265.998 253.686 265.998 260.866C265.998 268.046 271.818 273.866 278.998 273.866Z" fill="#CCCCCC"/>
<path d="M189.454 35.4448C169.499 66.8173 139.052 87.6375 101.504 101.315C100.762 101.871 99.9179 102.275 99.0198 102.504C98.1216 102.734 97.1871 102.784 96.2695 102.653C95.3519 102.521 94.4692 102.21 93.6719 101.737C92.8746 101.264 92.1782 100.639 91.6225 99.8968V99.8968C71.2266 72.6643 75.832 33.7437 102.75 12.9349C109.258 7.91283 116.699 4.23348 124.64 2.11051C132.582 -0.0124712 140.866 -0.536798 149.012 0.56798C157.158 1.67276 165.003 4.38462 172.092 8.54614C179.181 12.7077 185.373 18.2359 190.308 24.81L190.872 25.5632C191.428 26.3052 191.832 27.1494 192.062 28.0475C192.291 28.9456 192.341 29.8802 192.21 30.7978C192.078 31.7154 191.767 32.598 191.294 33.3954C190.821 34.1927 190.196 34.8891 189.454 35.4448V35.4448Z" fill="#E6E6E6"/>
<path d="M367.687 24.81C372.623 18.2359 378.814 12.7077 385.904 8.54613C392.993 4.38461 400.838 1.67276 408.984 0.567984C417.13 -0.536794 425.414 -0.0124822 433.355 2.1105C441.297 4.23347 448.737 7.91282 455.245 12.9349C482.164 33.7437 486.769 72.6643 466.373 99.8968C465.817 100.639 465.121 101.264 464.324 101.737C463.526 102.21 462.644 102.521 461.726 102.653C460.808 102.784 459.874 102.734 458.976 102.504C458.078 102.275 457.233 101.871 456.492 101.315C421.634 87.9698 393.049 64.8757 368.542 35.4448C367.043 34.3225 366.052 32.6509 365.786 30.7977C365.52 28.9446 366.001 27.0617 367.123 25.5632L367.687 24.81Z" fill="#E6E6E6"/>
<path d="M358.941 447.134C357.67 447.848 356.734 449.037 356.338 450.44C355.942 451.843 356.118 453.346 356.827 454.62L388.569 511.342C389.282 512.615 390.47 513.552 391.874 513.949C393.278 514.345 394.781 514.167 396.054 513.455C397.327 512.743 398.264 511.554 398.661 510.151C399.057 508.747 398.88 507.243 398.168 505.971L366.426 449.248C365.712 447.977 364.523 447.041 363.12 446.645C361.717 446.248 360.215 446.424 358.941 447.134V447.134Z" fill="#E6E6E6"/>
<path d="M191.569 449.248L159.827 505.97C159.115 507.243 158.938 508.747 159.335 510.15C159.731 511.554 160.669 512.743 161.942 513.455C163.214 514.167 164.718 514.345 166.122 513.948C167.525 513.552 168.714 512.615 169.426 511.342L201.168 454.62C201.521 453.989 201.747 453.296 201.831 452.578C201.916 451.861 201.859 451.134 201.663 450.439C201.466 449.743 201.135 449.094 200.688 448.526C200.24 447.959 199.686 447.486 199.055 447.133C198.425 446.78 197.731 446.555 197.014 446.47C196.296 446.386 195.569 446.443 194.874 446.64C194.179 446.836 193.529 447.168 192.962 447.615C192.395 448.063 191.922 448.617 191.569 449.248H191.569Z" fill="#E6E6E6"/>
<path d="M394.998 525.866C404.387 525.866 411.998 518.255 411.998 508.866C411.998 499.477 404.387 491.866 394.998 491.866C385.609 491.866 377.998 499.477 377.998 508.866C377.998 518.255 385.609 525.866 394.998 525.866Z" fill="#E6E6E6"/>
<path d="M406.998 90.866C416.387 90.866 423.998 83.2548 423.998 73.866C423.998 64.4771 416.387 56.866 406.998 56.866C397.609 56.866 389.998 64.4771 389.998 73.866C389.998 83.2548 397.609 90.866 406.998 90.866Z" fill="#E6E6E6"/>
<path d="M277.998 50.866C287.387 50.866 294.998 43.2548 294.998 33.866C294.998 24.4771 287.387 16.866 277.998 16.866C268.609 16.866 260.998 24.4771 260.998 33.866C260.998 43.2548 268.609 50.866 277.998 50.866Z" fill="#E6E6E6"/>
<path d="M154.998 88.866C164.387 88.866 171.998 81.2548 171.998 71.866C171.998 62.4771 164.387 54.866 154.998 54.866C145.609 54.866 137.998 62.4771 137.998 71.866C137.998 81.2548 145.609 88.866 154.998 88.866Z" fill="#E6E6E6"/>
<path d="M165.998 525.866C175.387 525.866 182.998 518.255 182.998 508.866C182.998 499.477 175.387 491.866 165.998 491.866C156.609 491.866 148.998 499.477 148.998 508.866C148.998 518.255 156.609 525.866 165.998 525.866Z" fill="#E6E6E6"/>
<path d="M458.703 593.34L459.434 595.189H458.703V593.34Z" fill="#2F2E41"/>
</svg>
