<svg width="243" height="291" viewBox="0 0 243 291" fill="none" xmlns="http://www.w3.org/2000/svg">
<g clip-path="url(#clip0_4_198)">
<path d="M194.897 100.547H170.923V92.6439C170.923 79.3973 181.665 68.6427 194.897 68.6427H194.897V100.547V100.547Z" fill="#2F2E41"/>
<path d="M189.583 85.7938L193.705 104.355L169.551 100.34L179.394 82.7854L189.583 85.7938Z" fill="#A0616A"/>
<path opacity="0.1" d="M189.583 85.7938L193.705 104.355L169.551 100.34L179.394 82.7854L189.583 85.7938Z" fill="black"/>
<path d="M166.425 159.757H189.583V125.444H166.425V159.757Z" fill="#A0616A"/>
<path d="M204.635 187.81L199.54 215.167C199.54 215.167 202.783 234.178 193.056 253.653L186.572 273.591L176.846 272.2C176.846 272.2 182.867 257.362 182.867 250.871C182.867 244.379 184.257 219.34 184.257 219.34L183.562 190.769L204.635 187.81Z" fill="#181818"/>
<path d="M175.457 271.736C175.457 271.736 186.572 267.563 187.499 273.591L187.035 276.373C187.035 276.373 191.204 288.893 185.183 289.82C179.162 290.747 173.604 292.138 173.141 289.356C172.678 286.574 172.685 283.101 173.839 280.665C174.994 278.228 175.457 271.736 175.457 271.736Z" fill="#2F2E41"/>
<path d="M169.575 183.566L166.869 211.263C166.869 211.263 158.473 228.621 162.406 250.035L163.096 270.993L172.824 272.364C172.824 272.364 171.163 256.436 172.966 250.2C174.769 243.965 180.39 219.527 180.39 219.527L188.994 192.276L169.575 183.566V183.566Z" fill="#181818"/>
<path d="M174.288 272.306C174.288 272.306 164.77 265.202 162.206 270.735L161.878 273.536C161.878 273.536 154.396 284.401 159.922 286.968C165.448 289.535 170.4 292.419 171.618 289.876C172.835 287.332 173.793 283.994 173.361 281.332C172.929 278.67 174.288 272.306 174.288 272.306V272.306Z" fill="#181818"/>
<path d="M199.077 143.992C209.97 154.168 210.778 170.27 204.404 189.433C204.404 189.433 184.025 203.343 169.204 185.723L161.794 150.019L199.077 143.992Z" fill="#181818"/>
<path d="M180.783 94.3774L192.362 96.2322L191.435 125.444L204.404 151.411L187.73 159.757C187.73 159.757 174.762 135.182 172.446 119.88C170.131 104.578 171.52 93.4501 171.52 93.4501L180.783 94.3774Z" fill="#F47222"/>
<path d="M171.983 95.3048L160.404 97.1595L161.331 126.372L158.552 153.265L165.036 160.684C165.036 160.684 178.004 136.109 180.32 120.807C182.636 105.506 181.246 94.3774 181.246 94.3774L171.983 95.3048Z" fill="#F47222"/>
<path d="M185.878 96.0003L188.425 95.3048C188.425 95.3048 197.456 94.1456 198.846 97.8551C200.235 101.565 199.772 123.358 199.772 123.358C199.772 123.358 202.162 150.105 192.862 150.41C183.562 150.715 185.414 128.458 185.414 128.458L185.878 96.0003Z" fill="#F47222"/>
<path d="M185.541 90.8877C192.161 90.8877 197.528 85.5148 197.528 78.8871C197.528 72.2594 192.161 66.8865 185.541 66.8865C178.921 66.8865 173.554 72.2594 173.554 78.8871C173.554 85.5148 178.921 90.8877 185.541 90.8877Z" fill="#A0616A"/>
<path d="M170.594 96.9277L168.046 96.2322C168.046 96.2322 159.015 95.073 157.626 98.7824C156.236 102.492 156.699 124.285 156.699 124.285C156.699 124.285 154.309 151.033 163.609 151.338C172.909 151.642 171.057 129.386 171.057 129.386L170.594 96.9277Z" fill="#6C63FF"/>
<path d="M178.617 95.4031C176.045 94.7499 173.13 97.4996 172.104 101.546C171.672 103.157 171.632 104.848 171.987 106.478L170.882 111.078L170.801 111.073L162.085 131.637C160.059 136.419 160.273 141.908 162.857 146.411C164.395 149.09 166.413 150.891 168.783 149.053C172.716 146.002 175.285 128.535 176.457 118.501L179.169 108.302C180.258 107.039 181.028 105.533 181.416 103.91C182.441 99.8651 181.188 96.0563 178.617 95.4031V95.4031Z" fill="#A0616A"/>
<path d="M162.593 88.5957C163.202 86.7397 164.406 85.1147 164.945 83.2367C165.66 80.7432 167.182 86.275 167.33 83.685C167.613 78.7622 175.117 66.0992 179.402 63.6668C183.686 61.2344 186.146 61.9678 190.511 64.2522C190.511 64.2522 192.63 64.3871 195.268 65.6909C197.905 66.9946 200.28 69.0827 201.306 71.8428C202.119 74.0306 202.029 76.4332 202.3 78.7517C203.057 85.2107 206.674 91.3537 205.898 97.8104C205.656 99.8249 204.891 101.908 203.246 103.093C201.6 104.278 198.942 104.149 197.859 102.434C197.49 101.849 197.334 101.154 197.017 100.539C196.7 99.9232 196.128 99.3493 195.437 99.3685C194.398 99.3973 193.869 100.793 194.278 101.75C194.688 102.706 195.651 103.284 196.555 103.797C194.402 104.767 191.731 104.465 189.848 103.039C187.965 101.613 186.948 99.1216 187.295 96.7834C187.783 93.4884 192.578 94.1704 193.142 90.8877C193.554 88.498 194.997 84.4995 194.604 82.1068C194.211 79.7141 192.322 82.6112 194.312 81.2287C192.123 82.2853 187.44 75.0571 185.148 74.2475C182.856 73.4379 180.913 71.6849 179.871 69.4868C177.44 73.0146 175.302 72.0566 174.431 76.2528C173.561 80.449 174.366 89.9824 177.95 92.3252C176.516 93.3051 175.372 94.7064 174.699 96.3092C174.318 97.2172 174.071 98.2107 173.438 98.9648C172.229 100.405 169.997 100.493 168.218 99.8871C166.012 99.1362 164.126 97.4869 163.086 95.3995C162.046 93.3121 161.865 90.8116 162.593 88.5957L162.593 88.5957Z" fill="#2F2E41"/>
<path d="M0 290.329C0 290.635 0.245482 290.881 0.551174 290.881H242.449C242.755 290.881 243 290.635 243 290.329C243 290.023 242.755 289.777 242.449 289.777H0.551174C0.245482 289.777 0 290.023 0 290.329Z" fill="#3F3D56"/>
<path d="M157.488 0.463608H62.2327C51.4307 0.463608 42.674 9.23047 42.674 20.0449V270.635C42.674 281.449 51.4307 290.216 62.2327 290.216H157.488C168.29 290.216 177.047 281.449 177.047 270.635V20.0449C177.047 9.23047 168.29 0.463608 157.488 0.463608H157.488Z" fill="white"/>
<path d="M157.488 290.68H62.2327C51.1927 290.68 42.2108 281.688 42.2108 270.635V20.045C42.2108 8.99225 51.1927 0 62.2327 0H157.488C168.528 0 177.51 8.99225 177.51 20.045V270.635C177.51 281.688 168.528 290.68 157.488 290.68H157.488ZM62.2327 0.927367C51.7033 0.927367 43.1371 9.50348 43.1371 20.045V270.635C43.1371 281.176 51.7033 289.752 62.2327 289.752H157.488C168.017 289.752 176.583 281.176 176.583 270.635V20.045C176.583 9.50347 168.017 0.927367 157.488 0.927367H62.2327Z" fill="#3F3D56"/>
<path d="M34.8027 43.8489C33.9664 43.8489 33.2863 44.5297 33.2863 45.367V57.5115C33.2863 58.3487 33.9664 59.0296 34.8027 59.0296C35.6389 59.0296 36.319 58.3487 36.319 57.5115V45.367C36.319 44.5297 35.6389 43.8489 34.8027 43.8489Z" fill="#3F3D56"/>
<path d="M164.388 40.5543H126.1C124.476 40.5543 123.155 39.2316 123.155 37.6057C123.155 35.9799 124.476 34.6572 126.1 34.6572H164.388C166.012 34.6572 167.333 35.9799 167.333 37.6057C167.333 39.2316 166.012 40.5543 164.388 40.5543Z" fill="#E6E6E6"/>
<path d="M128.469 63.7419H91.2518C90.3136 63.7419 89.5501 62.9776 89.5501 62.0382C89.5501 61.0988 90.3136 60.3349 91.2518 60.3349H128.469C129.407 60.3349 130.17 61.0988 130.17 62.0382C130.17 62.9776 129.407 63.7419 128.469 63.7419V63.7419Z" fill="#F47222"/>
<path d="M36.2749 72.1499C52.8754 72.1499 66.3327 58.9609 66.3327 42.6914C66.3327 26.4219 52.8754 13.2328 36.2749 13.2328C19.6744 13.2328 6.21701 26.4219 6.21701 42.6914C6.21701 58.9609 19.6744 72.1499 36.2749 72.1499Z" fill="#F47222"/>
<path d="M46.4765 27.8323C42.4749 35.1273 38.4732 42.4223 34.4716 49.7173C31.9212 45.2059 29.3847 40.6865 26.828 36.1786C25.9451 34.6217 23.5434 36.022 24.4286 37.5828C27.3923 42.8084 30.3253 48.0515 33.2891 53.2771C33.7958 54.1706 35.187 54.1914 35.6886 53.2771C40.0844 45.2636 44.4802 37.25 48.876 29.2365C49.7374 27.6662 47.3385 26.2608 46.4765 27.8323H46.4765Z" fill="white"/>
<path d="M75.8662 6.7966H54.6181C54.5387 6.7966 54.4744 6.861 54.4744 6.94044V9.41691C54.4744 9.49635 54.5387 9.56075 54.6181 9.56075H75.8662C75.9456 9.56075 76.0099 9.49635 76.0099 9.41691V6.94044C76.0099 6.861 75.9456 6.7966 75.8662 6.7966Z" fill="#E6E6E6"/>
<path d="M147.437 9.56075C148.657 9.56075 149.646 8.57071 149.646 7.34943C149.646 6.12815 148.657 5.13811 147.437 5.13811C146.217 5.13811 145.228 6.12815 145.228 7.34943C145.228 8.57071 146.217 9.56075 147.437 9.56075Z" fill="#E6E6E6"/>
<path d="M153.511 9.56075C154.731 9.56075 155.72 8.57071 155.72 7.34943C155.72 6.12815 154.731 5.13811 153.511 5.13811C152.291 5.13811 151.302 6.12815 151.302 7.34943C151.302 8.57071 152.291 9.56075 153.511 9.56075Z" fill="#E6E6E6"/>
<path d="M159.585 9.56075C160.805 9.56075 161.794 8.57071 161.794 7.34943C161.794 6.12815 160.805 5.13811 159.585 5.13811C158.365 5.13811 157.376 6.12815 157.376 7.34943C157.376 8.57071 158.365 9.56075 159.585 9.56075Z" fill="#E6E6E6"/>
<path d="M62.0009 72.8613C62.0009 73.1673 62.2463 73.4131 62.552 73.4131H157.169C157.474 73.4131 157.72 73.1673 157.72 72.8613C157.72 72.5553 157.474 72.3095 157.169 72.3095H62.552C62.2463 72.3095 62.0009 72.5553 62.0009 72.8613V72.8613Z" fill="#3F3D56"/>
<path d="M148.095 116.23H91.3142C90.3759 116.23 89.6125 115.466 89.6125 114.526C89.6125 113.587 90.3759 112.823 91.3142 112.823H148.095C149.034 112.823 149.797 113.587 149.797 114.526C149.797 115.466 149.034 116.23 148.095 116.23Z" fill="#F47222"/>
<path d="M148.095 140.805H91.3142C90.3759 140.805 89.6125 140.041 89.6125 139.102C89.6125 138.162 90.3759 137.398 91.3142 137.398H148.095C149.034 137.398 149.797 138.162 149.797 139.102C149.797 140.041 149.034 140.805 148.095 140.805V140.805Z" fill="#F47222"/>
<path d="M148.095 165.38H91.3142C90.3759 165.38 89.6125 164.616 89.6125 163.677C89.6125 162.737 90.3759 161.973 91.3142 161.973H148.095C149.034 161.973 149.797 162.737 149.797 163.677C149.797 164.616 149.034 165.38 148.095 165.38V165.38Z" fill="#F47222"/>
<path d="M74.0923 118.489C76.3944 118.489 78.2606 116.621 78.2606 114.316C78.2606 112.011 76.3944 110.143 74.0923 110.143C71.7901 110.143 69.9239 112.011 69.9239 114.316C69.9239 116.621 71.7901 118.489 74.0923 118.489Z" fill="#F47222"/>
<path d="M73.6291 121.271V120.344C77.0767 120.344 79.8816 117.536 79.8816 114.084C79.8816 110.632 77.0767 107.824 73.6291 107.824V106.897C77.5875 106.897 80.8079 110.121 80.8079 114.084C80.8079 118.047 77.5875 121.271 73.6291 121.271Z" fill="#3F3D56"/>
<path d="M74.0923 143.064C76.3944 143.064 78.2606 141.196 78.2606 138.891C78.2606 136.586 76.3944 134.718 74.0923 134.718C71.7901 134.718 69.9239 136.586 69.9239 138.891C69.9239 141.196 71.7901 143.064 74.0923 143.064Z" fill="#F47222"/>
<path d="M73.6291 145.846V144.919C77.0767 144.919 79.8816 142.111 79.8816 138.659C79.8816 135.208 77.0767 132.399 73.6291 132.399V131.472C77.5875 131.472 80.8079 134.696 80.8079 138.659C80.8079 142.622 77.5875 145.846 73.6291 145.846Z" fill="#3F3D56"/>
<path d="M74.0923 167.639C76.3944 167.639 78.2606 165.771 78.2606 163.466C78.2606 161.162 76.3944 159.293 74.0923 159.293C71.7901 159.293 69.9239 161.162 69.9239 163.466C69.9239 165.771 71.7901 167.639 74.0923 167.639Z" fill="#F47222"/>
<path d="M73.6291 170.422V169.494C77.0767 169.494 79.8816 166.686 79.8816 163.234C79.8816 159.783 77.0767 156.975 73.6291 156.975V156.047C77.5875 156.047 80.8079 159.271 80.8079 163.234C80.8079 167.198 77.5875 170.422 73.6291 170.422Z" fill="#3F3D56"/>
<path d="M177.855 94.4757C180.426 93.8226 183.341 96.5722 184.367 100.619C184.799 102.23 184.839 103.921 184.484 105.55L185.589 110.15L185.671 110.146L194.386 130.71C196.413 135.491 196.199 140.98 193.614 145.484C192.076 148.163 190.058 149.964 187.688 148.125C183.755 145.075 181.187 127.608 180.014 117.574L177.302 107.375C176.214 106.111 175.443 104.605 175.056 102.983C174.03 98.9377 175.283 95.1289 177.855 94.4757V94.4757Z" fill="#A0616A"/>
<path d="M187.755 105.744L178.004 112.684L182.88 143.423L188.994 151.341L196.117 148.874L198.2 134.343L195.749 120.29L187.755 105.744Z" fill="#F47222"/>
</g>
<defs>
<clipPath id="clip0_4_198">
<rect width="243" height="291" fill="white"/>
</clipPath>
</defs>
</svg>
