<svg width="189" height="225" viewBox="0 0 189 225" fill="none" xmlns="http://www.w3.org/2000/svg">
<g clip-path="url(#clip0_4_159)">
<path d="M73.2014 184.671C69.4407 180.797 63.9909 178.575 58.2494 178.575L58.028 178.576C54.2462 178.577 50.5319 177.575 47.265 175.672L46.925 175.474L47.1988 175.192C48.6812 173.66 49.9189 171.91 50.8687 170.002C50.1942 170.63 49.3896 171.103 48.512 171.386C47.6344 171.669 46.7052 171.756 45.7902 171.641C44.8241 171.526 43.8967 171.194 43.0775 170.67C42.2582 170.145 41.5685 169.443 41.0599 168.614C39.0532 165.362 36.6611 160.747 36.6611 157.231C36.6643 154.259 37.2871 151.321 38.4901 148.603C39.693 145.885 41.4496 143.447 43.6479 141.445C45.0396 140.191 46.1512 138.659 46.9103 136.947C47.6693 135.236 48.0588 133.383 48.0532 131.511L48.0521 131.245C48.0517 128.78 48.3532 126.325 48.9499 123.934L49.0104 123.692L49.2592 123.701C50.8631 123.755 52.4678 123.621 54.0402 123.301C52.5653 123.12 51.1224 122.737 49.7524 122.162L49.4849 122.053L49.5757 121.78C55.8352 117.908 69.9647 119.913 78.1659 101.169C84.816 85.9695 108.28 114.661 108.28 131.245C108.28 132.937 106.603 135.174 107.858 136.292C121.425 148.383 112.064 156.147 109.113 163.959C108.413 165.813 109.931 167.848 109.931 169.853C109.931 170.193 109.922 170.545 109.905 170.897L109.879 171.439L109.426 171.138C108.532 170.553 107.702 169.873 106.952 169.111C107.73 170.899 108.097 172.839 108.025 174.788C107.954 176.737 107.445 178.645 106.538 180.372C105.116 183.052 103.741 184.971 102.45 186.075C98.3145 189.61 92.9834 191.434 87.5467 191.173C82.11 190.912 76.9785 188.586 73.2014 184.671H73.2014Z" fill="#E6E6E6"/>
<path d="M95.9149 225C96.0073 225 96.0966 224.966 96.1664 224.906C96.2362 224.845 96.2818 224.762 96.2948 224.67C96.3111 224.556 97.9102 213.035 96.4741 197.724C95.1478 183.583 90.8885 163.216 78.1295 146.488C78.0989 146.448 78.0607 146.414 78.0171 146.389C77.9735 146.364 77.9253 146.347 77.8752 146.34C77.8252 146.334 77.7743 146.337 77.7255 146.35C77.6766 146.362 77.6308 146.385 77.5907 146.415C77.5505 146.446 77.5168 146.484 77.4914 146.528C77.466 146.571 77.4495 146.62 77.4427 146.67C77.436 146.72 77.4392 146.77 77.4521 146.819C77.4651 146.868 77.4875 146.914 77.5182 146.954C90.167 163.537 94.392 183.754 95.7089 197.795C97.1367 213.017 95.5502 224.448 95.534 224.562C95.5263 224.616 95.5303 224.672 95.5459 224.725C95.5616 224.777 95.5883 224.826 95.6244 224.868C95.6605 224.909 95.7052 224.943 95.7553 224.965C95.8054 224.988 95.8598 225 95.9149 225V225Z" fill="#3F3D56"/>
<path d="M85.5028 170.083C85.5839 170.083 85.663 170.058 85.7287 170.01C85.7944 169.962 85.8433 169.895 85.8684 169.818C85.8936 169.741 85.8936 169.658 85.8685 169.581C85.8435 169.504 85.7946 169.436 85.729 169.389C82.0934 166.93 78.1659 164.933 74.037 163.443C67.5863 161.084 57.7771 158.945 47.6787 162.156C47.6305 162.171 47.5858 162.196 47.5472 162.228C47.5085 162.26 47.4766 162.3 47.4533 162.345C47.4301 162.39 47.4159 162.439 47.4116 162.489C47.4073 162.539 47.413 162.59 47.4283 162.638C47.4436 162.686 47.4683 162.731 47.5009 162.769C47.5335 162.808 47.5734 162.84 47.6183 162.863C47.6632 162.886 47.7122 162.9 47.7626 162.904C47.813 162.908 47.8637 162.903 47.9118 162.887C57.8033 159.743 67.4347 161.846 73.7728 164.164C77.8353 165.629 81.6998 167.592 85.2772 170.01C85.3427 170.057 85.4217 170.083 85.5028 170.083V170.083Z" fill="#3F3D56"/>
<path d="M103.09 126.326C103.096 126.245 103.076 126.165 103.033 126.096C102.99 126.027 102.927 125.973 102.851 125.943C102.776 125.912 102.693 125.906 102.615 125.925C102.536 125.945 102.465 125.989 102.413 126.051C99.6965 129.496 97.4195 133.265 95.6344 137.272C92.8143 143.529 89.9725 153.149 92.4509 163.442C92.4626 163.491 92.4839 163.537 92.5136 163.578C92.5432 163.619 92.5807 163.653 92.6237 163.68C92.6668 163.706 92.7146 163.724 92.7645 163.731C92.8144 163.739 92.8653 163.737 92.9144 163.726C92.9635 163.714 93.0098 163.692 93.0506 163.663C93.0915 163.633 93.126 163.596 93.1524 163.553C93.1787 163.51 93.1963 163.462 93.2041 163.412C93.212 163.362 93.2099 163.311 93.198 163.262C90.7706 153.18 93.5643 143.735 96.3352 137.587C98.0901 133.645 100.329 129.936 103 126.546C103.053 126.484 103.084 126.407 103.09 126.326V126.326Z" fill="#3F3D56"/>
<path d="M177.208 224.594H146.618L146.487 224.355C146.096 223.647 145.718 222.896 145.365 222.124C142.214 215.386 140.882 207.678 139.707 200.879L138.822 195.753C138.715 195.132 138.796 194.494 139.054 193.919C139.313 193.344 139.737 192.86 140.272 192.527C140.808 192.195 141.43 192.03 142.061 192.053C142.691 192.076 143.3 192.286 143.809 192.657C148.458 196.036 153.109 199.412 157.761 202.785C159.523 204.065 161.535 205.547 163.461 207.149C163.647 206.247 163.842 205.342 164.036 204.45C164.17 203.834 164.485 203.272 164.941 202.836C165.397 202.4 165.972 202.11 166.594 202.003C167.216 201.895 167.855 201.976 168.431 202.234C169.007 202.492 169.492 202.915 169.826 203.45L173.405 209.195C176.015 213.389 178.319 217.523 177.849 221.981C177.852 222.036 177.848 222.09 177.837 222.143C177.743 222.876 177.569 223.595 177.318 224.29L177.208 224.594Z" fill="#F0F0F0"/>
<path d="M162.957 104.458L157.053 82.6301C156.8 81.7061 156.194 80.9184 155.365 80.437C154.535 79.9557 153.55 79.8193 152.621 80.0572V80.0572C152.141 80.1804 151.69 80.3999 151.297 80.7026C150.905 81.0053 150.578 81.3847 150.336 81.8177C150.095 82.2507 149.945 82.7283 149.894 83.2213C149.844 83.7143 149.894 84.2124 150.043 84.6853L156.871 107.172L160.444 121.01C159.923 121.407 159.538 121.954 159.34 122.577C159.142 123.201 159.141 123.87 159.336 124.494C159.532 125.118 159.916 125.667 160.434 126.065C160.953 126.464 161.582 126.694 162.236 126.723C162.89 126.752 163.538 126.579 164.09 126.228C164.642 125.877 165.073 125.365 165.324 124.761C165.574 124.157 165.633 123.49 165.491 122.852C165.349 122.213 165.014 121.634 164.531 121.192L162.957 104.458Z" fill="#A0616A"/>
<path d="M113.279 99.7572L131.216 85.967C131.975 85.3805 132.472 84.5197 132.6 83.5704C132.729 82.6211 132.478 81.6593 131.903 80.8927V80.8927C131.606 80.4962 131.23 80.1642 130.8 79.9172C130.37 79.6703 129.894 79.5134 129.402 79.4561C128.909 79.3989 128.41 79.4425 127.934 79.5843C127.459 79.726 127.017 79.9631 126.637 80.2809L108.444 95.1761L97.007 103.762C96.441 103.433 95.7875 103.286 95.1352 103.341C94.4829 103.397 93.8634 103.651 93.3609 104.07C92.8585 104.49 92.4974 105.053 92.3267 105.685C92.156 106.316 92.184 106.984 92.4069 107.599C92.6299 108.214 93.0369 108.746 93.5727 109.121C94.1084 109.497 94.747 109.699 95.4017 109.7C96.0563 109.7 96.6953 109.5 97.2318 109.125C97.7682 108.75 98.1762 108.219 98.4002 107.605L113.279 99.7572Z" fill="#A0616A"/>
<path d="M127.899 102.927L127.108 120.568L151.934 115.177C149.821 108.089 148.384 106.88 149.972 101.947L127.899 102.927Z" fill="#A0616A"/>
<path d="M143.164 70.588H134.891L131.339 76.6606L129.646 76.5672C128.818 76.5216 127.99 76.645 127.211 76.9301C126.433 77.2152 125.721 77.6558 125.119 78.2251C124.516 78.7945 124.037 79.4805 123.709 80.2413C123.381 81.0021 123.212 81.8217 123.212 82.65V82.65L125.297 85.8792C125.297 85.8792 121.567 92.3729 126.94 95.5676C126.94 95.5676 125.982 101.587 126.94 101.522C127.899 101.457 130.106 100.232 127.899 101.457C125.691 102.682 125.856 102.847 126.142 103.132L126.427 103.417L149.637 107.31C149.637 107.31 150.316 102.816 150.389 102.014C150.463 101.212 149.972 103.172 150.463 101.212C150.953 99.2523 151.689 99.9873 150.953 99.2523C150.217 98.5173 155.72 89.4113 153.459 85.8792L157.084 82.3471C157.084 78.959 151.637 76.2123 148.245 76.2123H147.811L143.164 70.588Z" fill="#E6E6E6"/>
<path d="M123.233 217.793H119.885L118.292 204.892L123.233 204.892L123.233 217.793Z" fill="#A0616A"/>
<path d="M113.127 222.728C113.129 223.103 113.278 223.461 113.543 223.727C113.808 223.992 114.167 224.142 114.542 224.144H120.845L121.04 223.74L121.932 221.902L122.277 223.74L122.354 224.144H124.731L124.697 223.737L124.063 216.143L123.234 216.092L119.651 215.88L118.771 215.827V218.094C118.103 218.804 112.861 221.487 113.127 222.728Z" fill="#2F2E41"/>
<path d="M172.992 209.032L170.176 210.842L161.85 200.853L166.006 198.183L172.992 209.032Z" fill="#A0616A"/>
<path d="M167.166 218.644C167.37 218.958 167.69 219.18 168.057 219.259C168.423 219.339 168.807 219.271 169.123 219.071L174.424 215.664L174.369 215.219L174.124 213.191L175.409 214.55L175.693 214.849L177.692 213.564L177.443 213.24L172.797 207.196L172.072 207.602L168.944 209.36L168.174 209.79L169.402 211.697C169.225 212.655 166.27 217.744 167.166 218.644Z" fill="#2F2E41"/>
<path d="M188.611 224.829L84.9365 224.93C84.8331 224.93 84.734 224.888 84.661 224.815C84.588 224.742 84.5471 224.643 84.5471 224.539C84.5471 224.436 84.588 224.337 84.661 224.263C84.734 224.19 84.8331 224.149 84.9365 224.148L188.611 224.047C188.714 224.048 188.813 224.089 188.886 224.162C188.959 224.236 189 224.335 189 224.438C189 224.542 188.959 224.641 188.886 224.714C188.813 224.787 188.714 224.829 188.611 224.829V224.829Z" fill="#CACACA"/>
<path d="M151.545 113.185C151.545 113.185 135.676 121.57 127.282 115.849C127.282 115.849 125.446 124.733 124.71 125.468C123.975 126.203 122.802 126.523 123.634 127.343C124.465 128.163 124.928 129.27 123.348 130.676C121.767 132.083 120.191 131.636 121.715 133.085C123.239 134.533 117.107 170.058 117.107 170.058C117.107 170.058 118.088 203.095 117.107 204.094C116.126 205.093 114.815 205.317 116.084 206.553C117.353 207.788 117.353 206.83 117.353 208.534V210.238L117.933 211.932H125.896C125.896 211.932 127.818 209.702 125.896 207.765C123.975 205.828 126.481 205.298 127.067 203.481C127.653 201.663 128.634 203.623 127.653 201.663C126.672 199.703 126.201 200.076 126.192 198.787C126.182 197.498 140.652 147.028 140.652 147.028L142.405 174.963L163.486 205.556L169.691 200.907C169.691 200.907 165.173 194.554 166.23 193.68C167.286 192.807 163.116 191.711 164.431 190.726C165.746 189.741 162.581 188.748 163.774 187.442C164.967 186.136 162.13 182.844 160.486 182.844C158.842 182.844 156.535 177.357 156.535 177.357L159.979 134.01L151.545 113.185Z" fill="#181818"/>
<path d="M134.725 52.7572C134.613 52.9045 133.718 52.8252 132.642 52.6683C130.515 52.3579 130.225 52.7267 128.634 54.1718C126.331 56.2652 127.641 69.0332 126.509 71.7997L126.143 72.0689C126.868 71.9305 127.581 71.7313 128.273 71.4735C128.664 70.2415 129.055 69.0055 129.45 67.7745C129.823 68.7323 130.057 69.7381 130.145 70.7619C130.693 70.5462 131.238 70.0188 133.526 69.3115C134.678 68.5306 143.014 67.7455 144.086 67.4019C146.806 58.1577 142.423 54.4193 134.725 52.7572Z" fill="#2F2E41"/>
<path d="M137.54 67.0121C141.939 67.0121 145.506 63.4493 145.506 59.0544C145.506 54.6594 141.939 51.0966 137.54 51.0966C133.14 51.0966 129.574 54.6594 129.574 59.0544C129.574 63.4493 133.14 67.0121 137.54 67.0121Z" fill="#A0616A"/>
<path d="M142.555 52.0559C142.106 51.9897 141.674 51.8384 141.282 51.61C141.088 51.4928 140.93 51.3233 140.828 51.121C140.725 50.9186 140.682 50.6915 140.702 50.4657C140.8 49.9003 141.44 49.5627 142.014 49.5971C142.585 49.6793 143.127 49.8986 143.594 50.2361C143.543 49.6897 143.309 49.1764 142.931 48.7786C142.552 48.3808 142.051 48.1216 141.507 48.0427C142.262 48.0021 143.046 47.9663 143.743 48.2561C144.44 48.5459 145.021 49.2633 144.896 50.0073C146.068 49.8564 147.224 50.6725 147.708 51.7498C148.192 52.8272 148.096 54.0924 147.71 55.2083C147.672 55.3792 147.597 55.5399 147.491 55.6796C147.386 55.8192 147.251 55.9345 147.097 56.0176C146.702 56.1672 146.278 55.9163 145.936 55.6691C144.15 54.3773 142.524 52.8776 141.093 51.2017" fill="#2F2E41"/>
<path d="M146.028 67.5146C145.69 67.6735 145.866 68.2644 145.604 68.529C145.49 68.641 145.353 68.7264 145.202 68.7789C145.162 68.2857 145.047 67.8015 144.861 67.3432C144.826 67.2599 144.77 67.1668 144.682 67.1741C144.579 67.1864 144.552 67.3211 144.549 67.4216C144.528 67.9199 144.418 68.4104 144.223 68.8695C144.221 68.8744 144.218 68.8818 144.216 68.8867C144.14 68.8842 144.061 68.8818 143.988 68.8793C143.419 68.8573 142.158 67.3971 141.878 67.892C142.864 66.1451 144.066 63.5187 144.25 61.5219C144.314 61.1039 144.283 60.6769 144.159 60.2724C144.095 60.0712 143.974 59.8926 143.811 59.758C143.648 59.6234 143.45 59.5383 143.24 59.5129C143.136 59.5082 143.033 59.5264 142.937 59.5662C142.841 59.606 142.756 59.6665 142.686 59.7433C142.616 59.8201 142.565 59.9113 142.534 60.0104C142.504 60.1095 142.496 60.214 142.511 60.3165L142.369 60.2969C141.049 59.2238 142.187 57.3593 140.652 56.6219C140.132 56.372 136.949 57.2074 136.387 57.0604C136.375 56.4694 136.255 55.8856 136.031 55.3381C135.997 55.2547 135.941 55.1616 135.852 55.169C135.749 55.1812 135.722 55.316 135.72 55.4164C135.699 55.9148 135.589 56.4053 135.394 56.8644C134.616 56.7542 133.824 56.7958 133.061 56.9869C132.389 57.1633 131.752 57.4671 131.077 57.6288C130.744 57.7309 130.393 57.764 130.046 57.726C129.7 57.6881 129.365 57.58 129.061 57.4083C128.205 56.835 128.056 55.5659 128.482 54.63C128.791 54.0294 129.209 53.4912 129.714 53.0424C130.099 52.67 130.498 52.3122 130.898 51.9546C131.256 51.6336 131.614 51.3126 131.972 50.9917C132.423 50.5679 132.903 50.1765 133.41 49.8206C134.218 49.2914 135.126 48.9328 136.078 48.7668C137.029 48.6008 138.005 48.6309 138.945 48.8553C140.073 49.1248 141.582 48.745 142.614 49.2718C143.154 49.5486 144.348 50.6095 144.822 50.9868C146.033 51.9497 145.213 51.1651 146.538 51.7218C149.698 53.0492 148.301 66.4459 146.028 67.5146Z" fill="#2F2E41"/>
<path d="M57.8262 125.597C85.1103 125.597 107.228 103.502 107.228 76.2465C107.228 48.9909 85.1103 26.8958 57.8262 26.8958C30.5421 26.8958 8.42395 48.9909 8.42395 76.2465C8.42395 103.502 30.5421 125.597 57.8262 125.597Z" fill="white"/>
<path d="M57.8262 126.09C30.3139 126.09 7.93088 103.73 7.93088 76.2465C7.93088 48.7628 30.3139 26.4032 57.8262 26.4032C85.3385 26.4032 107.722 48.7628 107.722 76.2465C107.722 103.73 85.3385 126.09 57.8262 126.09ZM57.8262 27.3884C30.8577 27.3884 8.91713 49.3061 8.91713 76.2465C8.91713 103.187 30.8577 125.105 57.8262 125.105C84.7947 125.105 106.735 103.187 106.735 76.2465C106.735 49.3061 84.7947 27.3884 57.8262 27.3884Z" fill="#F47222"/>
<path d="M51.0867 101.931C50.2336 101.931 49.3922 101.733 48.6292 101.352C47.8662 100.97 47.2026 100.417 46.6909 99.735L33.2132 81.7832C32.7802 81.2065 32.4652 80.5502 32.2861 79.8518C32.1071 79.1535 32.0674 78.4268 32.1695 77.7131C32.2716 76.9995 32.5134 76.3129 32.8811 75.6926C33.2488 75.0724 33.7352 74.5305 34.3125 74.098C34.8898 73.6655 35.5468 73.3508 36.2458 73.1719C36.9449 72.993 37.6724 72.9534 38.3868 73.0554C39.1012 73.1574 39.7884 73.3989 40.4094 73.7662C41.0303 74.1335 41.5727 74.6194 42.0057 75.1961L50.8233 86.9397L73.47 53.0054C74.2789 51.795 75.5359 50.955 76.9645 50.67C78.3932 50.385 79.8767 50.6784 81.0889 51.4857C82.3011 52.293 83.1428 53.5481 83.429 54.9751C83.7152 56.4021 83.4224 57.8843 82.615 59.0957L55.6596 99.4866C55.172 100.217 54.5161 100.82 53.7471 101.245C52.978 101.67 52.1182 101.905 51.2396 101.929C51.1886 101.93 51.1377 101.931 51.0867 101.931Z" fill="#F47222"/>
<path d="M108.725 29.9792C108.862 29.0357 107.873 28.1109 106.515 27.9136C105.158 27.7162 103.946 28.3211 103.808 29.2646C103.671 30.2081 104.66 31.133 106.018 31.3303C107.375 31.5277 108.587 30.9228 108.725 29.9792Z" fill="#E6E6E6"/>
<path d="M124.89 28.4036C125.027 27.4601 124.038 26.5352 122.68 26.3379C121.323 26.1406 120.111 26.7455 119.973 27.689C119.836 28.6325 120.825 29.5573 122.183 29.7547C123.54 29.952 124.752 29.3471 124.89 28.4036Z" fill="#3F3D56"/>
<path d="M104.298 16.906C104.436 15.9625 103.446 15.0376 102.089 14.8403C100.731 14.643 99.5189 15.2478 99.3815 16.1914C99.2441 17.1349 100.233 18.0597 101.591 18.2571C102.949 18.4544 104.161 17.8495 104.298 16.906Z" fill="#FF6584"/>
<path d="M97.2742 11.5509C97.2808 10.6847 96.7971 9.97885 96.1939 9.97429C95.5907 9.96973 95.0964 10.6682 95.0899 11.5344C95.0833 12.4006 95.567 13.1065 96.1702 13.111C96.7734 13.1156 97.2677 12.4171 97.2742 11.5509Z" fill="#E6E6E6"/>
<path d="M94.8922 1.57664C94.8987 0.710452 94.415 0.00457269 93.8118 1.6231e-05C93.2087 -0.00454023 92.7144 0.693952 92.7078 1.56014C92.7012 2.42632 93.1849 3.1322 93.7881 3.13676C94.3913 3.14132 94.8856 2.44282 94.8922 1.57664Z" fill="#3F3D56"/>
<path d="M113.416 19.1307C113.422 18.2645 112.939 17.5586 112.335 17.554C111.732 17.5495 111.238 18.248 111.231 19.1142C111.225 19.9804 111.708 20.6862 112.312 20.6908C112.915 20.6953 113.409 19.9969 113.416 19.1307Z" fill="#E6E6E6"/>
<path d="M105.604 23.0269C105.611 22.1607 105.127 21.4548 104.524 21.4503C103.921 21.4457 103.426 22.1442 103.42 23.0104C103.413 23.8766 103.897 24.5825 104.5 24.587C105.103 24.5916 105.597 23.8931 105.604 23.0269Z" fill="#FF6584"/>
<path d="M116.478 30.2282C116.485 29.362 116.001 28.6561 115.398 28.6515C114.795 28.647 114.3 29.3455 114.294 30.2117C114.287 31.0778 114.771 31.7837 115.374 31.7883C115.977 31.7928 116.472 31.0943 116.478 30.2282Z" fill="#3F3D56"/>
<path d="M16.0171 146.892C16.1546 145.949 15.1653 145.024 13.8076 144.827C12.4499 144.629 11.2378 145.234 11.1004 146.178C10.963 147.121 11.9522 148.046 13.3099 148.244C14.6677 148.441 15.8797 147.836 16.0171 146.892Z" fill="#E6E6E6"/>
<path d="M32.1823 145.317C32.3197 144.373 31.3305 143.448 29.9728 143.251C28.615 143.054 27.403 143.659 27.2656 144.602C27.1282 145.546 28.1174 146.471 29.4751 146.668C30.8328 146.865 32.0449 146.26 32.1823 145.317Z" fill="#3F3D56"/>
<path d="M11.5906 133.819C11.7281 132.876 10.7388 131.951 9.38111 131.753C8.02338 131.556 6.81133 132.161 6.6739 133.105C6.53648 134.048 7.52573 134.973 8.88346 135.17C10.2412 135.368 11.4532 134.763 11.5906 133.819Z" fill="#FF6584"/>
<path d="M4.56647 128.464C4.57303 127.598 4.08936 126.892 3.48617 126.888C2.88298 126.883 2.38867 127.581 2.38211 128.448C2.37555 129.314 2.85923 130.02 3.46243 130.024C4.06562 130.029 4.55992 129.33 4.56647 128.464Z" fill="#E6E6E6"/>
<path d="M2.18441 118.49C2.19097 117.624 1.7073 116.918 1.10411 116.913C0.500917 116.909 0.00661852 117.607 6.17688e-05 118.473C-0.00649498 119.34 0.477173 120.045 1.08037 120.05C1.68356 120.055 2.17786 119.356 2.18441 118.49Z" fill="#3F3D56"/>
<path d="M20.7079 136.044C20.7145 135.178 20.2308 134.472 19.6276 134.467C19.0244 134.463 18.5301 135.161 18.5236 136.027C18.517 136.894 19.0007 137.599 19.6039 137.604C20.2071 137.609 20.7014 136.91 20.7079 136.044Z" fill="#E6E6E6"/>
<path d="M12.8962 139.94C12.9028 139.074 12.4191 138.368 11.8159 138.364C11.2127 138.359 10.7184 139.057 10.7119 139.924C10.7053 140.79 11.189 141.496 11.7922 141.5C12.3954 141.505 12.8897 140.806 12.8962 139.94Z" fill="#FF6584"/>
<path d="M23.7704 147.141C23.777 146.275 23.2933 145.569 22.6901 145.565C22.0869 145.56 21.5926 146.259 21.5861 147.125C21.5795 147.991 22.0632 148.697 22.6664 148.702C23.2695 148.706 23.7639 148.008 23.7704 147.141Z" fill="#3F3D56"/>
</g>
<defs>
<clipPath id="clip0_4_159">
<rect width="189" height="225" fill="white"/>
</clipPath>
</defs>
</svg>
