<svg width="301" height="260" viewBox="0 0 301 260" fill="none" xmlns="http://www.w3.org/2000/svg">
<g clip-path="url(#clip0_4_2)">
<path d="M237.69 21.4707C237.352 21.2456 237.01 21.0321 236.671 20.8148C226.893 14.5722 216.412 9.50079 205.445 5.70533L202.902 40.7214H186.781V0.593806C185.767 0.384222 184.744 0.186282 183.721 -1.52588e-05V40.7214H164.564C154.018 40.7214 143.903 36.5395 136.446 29.0956C128.989 21.6518 124.799 11.5557 124.799 1.02854V1.0285C123.773 1.24973 122.754 1.48648 121.735 1.73876V40.7214H106.132L103.709 7.33155C92.4392 11.646 81.7398 17.3197 71.8492 24.2263C71.6781 24.3428 71.5071 24.4631 71.3399 24.5795C70.4806 25.1811 69.6329 25.7943 68.7892 26.4154V160.002H114.775L113.963 148.766L109.491 87.0744H199.539L195.067 148.766L194.255 160.002H239.731V22.8214C239.055 22.3634 238.374 21.9132 237.69 21.4707ZM121.735 76.8863H108.752L106.353 43.7798H121.735V76.8863ZM183.721 76.8863H161.916V76.2303C161.916 75.915 161.854 75.6028 161.733 75.3115C161.612 75.0203 161.435 74.7557 161.211 74.5329C160.987 74.3101 160.722 74.1335 160.43 74.0132C160.138 73.8929 159.825 73.8312 159.509 73.8318H150.03C149.714 73.8316 149.402 73.8936 149.11 74.0141C148.819 74.1346 148.554 74.3113 148.33 74.534C148.107 74.7568 147.93 75.0212 147.81 75.3123C147.689 75.6034 147.627 75.9153 147.627 76.2303V76.8863H124.799V43.7798H183.721V76.8863ZM186.781 76.8863V43.7798H202.68L200.281 76.8863H186.781Z" fill="#F2F2F2"/>
<path d="M287.632 242.787L287.936 235.966C291.104 234.275 294.638 233.382 298.231 233.364C293.286 237.399 293.904 245.178 290.552 250.604C289.493 252.289 288.069 253.714 286.383 254.774C284.698 255.834 282.795 256.502 280.816 256.728L276.678 259.257C276.111 256.098 276.236 252.853 277.045 249.746C277.855 246.64 279.329 243.745 281.368 241.262C282.525 239.881 283.852 238.65 285.317 237.6C286.308 240.208 287.632 242.787 287.632 242.787Z" fill="#F2F2F2"/>
<path d="M65.6329 235.312L55.6478 232.294C54.3382 226.984 54.3472 221.434 55.6739 216.128C59.7858 224.941 71.5348 226.96 78.3061 233.949C80.4012 236.144 81.9745 238.783 82.9093 241.668C83.844 244.554 84.1164 247.612 83.706 250.617L85.8916 257.673C81.0001 257.321 76.2432 255.914 71.9488 253.55C67.6543 251.185 63.9244 247.92 61.016 243.978C59.4063 241.751 58.0841 239.33 57.0804 236.773C61.3154 236.293 65.6329 235.312 65.6329 235.312Z" fill="#F2F2F2"/>
<path d="M279.862 258.141C279.86 258.348 279.778 258.546 279.632 258.693C279.56 258.764 279.475 258.821 279.381 258.86C279.287 258.898 279.186 258.918 279.084 258.918H275.958C275.856 258.918 275.754 258.898 275.66 258.859C275.565 258.82 275.48 258.763 275.407 258.691C275.335 258.619 275.278 258.533 275.239 258.439C275.2 258.345 275.18 258.244 275.18 258.141V163.774C275.18 161.694 274.48 160.006 273.621 160.002H39.3592C38.496 160.006 37.8 161.694 37.7961 163.774V257.563C37.7955 257.756 37.7231 257.942 37.5931 258.085C37.4631 258.227 37.2847 258.317 37.0924 258.336C36.4625 258.398 35.8326 258.452 35.2066 258.502C35.191 258.502 35.1755 258.506 35.1599 258.506C34.8177 258.537 34.4756 258.561 34.1334 258.588H34.1295C33.9507 258.266 33.7796 257.936 33.6046 257.606C33.5485 257.494 33.5192 257.37 33.5191 257.245V158.88C33.5191 158.306 33.5424 157.727 33.5813 157.157C33.6368 156.373 33.7341 155.594 33.8729 154.82C34.53 151.215 36.0153 148.774 37.7028 148.766H275.274C275.52 148.767 275.763 148.819 275.989 148.917C276.321 149.064 276.62 149.273 276.872 149.534C277.213 149.888 277.504 150.286 277.739 150.718C278.571 152.181 279.166 154.362 279.376 156.901C279.376 156.924 279.38 156.947 279.38 156.971C279.434 157.599 279.461 158.24 279.457 158.88L279.512 167.198L279.547 172.158L279.652 187.721L279.691 193.248L279.862 258.141Z" fill="#E6E6E6"/>
<path d="M300.537 259.881L193.319 260C193.197 260 193.079 259.951 192.993 259.864C192.906 259.778 192.857 259.66 192.857 259.538C192.857 259.416 192.906 259.298 192.993 259.212C193.079 259.125 193.197 259.076 193.319 259.076L300.537 258.956C300.66 258.957 300.777 259.006 300.864 259.092C300.95 259.179 300.999 259.296 300.999 259.419C300.999 259.541 300.95 259.658 300.864 259.745C300.777 259.831 300.66 259.88 300.537 259.881Z" fill="#CACACA"/>
<path d="M167.454 121.194H148.464C148.196 121.195 147.938 121.302 147.748 121.492C147.559 121.681 147.452 121.939 147.453 122.207V152.15H168.468V122.207C168.468 122.074 168.442 121.942 168.391 121.819C168.34 121.696 168.265 121.585 168.171 121.491C168.077 121.397 167.965 121.322 167.842 121.271C167.719 121.22 167.587 121.194 167.454 121.194ZM158.023 138.208C157.429 138.205 156.86 137.968 156.44 137.549C156.02 137.13 155.783 136.562 155.78 135.97V132.516C155.78 131.922 156.017 131.353 156.437 130.933C156.858 130.513 157.428 130.278 158.023 130.278C158.618 130.278 159.188 130.513 159.608 130.933C160.029 131.353 160.265 131.922 160.265 132.516V135.97C160.262 136.562 160.025 137.13 159.605 137.549C159.185 137.968 158.617 138.205 158.023 138.208V138.208Z" fill="#2F2E41"/>
<path d="M198.898 74.4644H117.726C117.029 74.4655 116.36 74.7425 115.867 75.2348C115.374 75.727 115.096 76.3943 115.095 77.0905V131.767C115.096 132.463 115.373 133.13 115.867 133.623C116.36 134.115 117.029 134.392 117.726 134.393H198.898C199.596 134.392 200.265 134.115 200.758 133.623C201.251 133.13 201.529 132.463 201.529 131.767V77.0905C201.528 76.3943 201.251 75.727 200.757 75.2348C200.264 74.7425 199.596 74.4655 198.898 74.4644V74.4644Z" fill="#3F3D56"/>
<path d="M198.219 76.3607H118.403C118.029 76.3615 117.672 76.5101 117.408 76.7739C117.144 77.0378 116.996 77.3952 116.996 77.768V131.089C116.997 131.461 117.145 131.818 117.409 132.081C117.672 132.345 118.03 132.493 118.403 132.493H198.219C198.592 132.493 198.95 132.345 199.214 132.081C199.477 131.818 199.626 131.461 199.626 131.089V77.768C199.626 77.3953 199.478 77.0378 199.214 76.7739C198.951 76.5101 198.593 76.3615 198.219 76.3607V76.3607Z" fill="white"/>
<path d="M147.387 151.192V154.081C147.388 154.231 147.447 154.374 147.553 154.48C147.659 154.586 147.803 154.646 147.953 154.646H167.967C168.117 154.645 168.261 154.586 168.367 154.48C168.472 154.374 168.532 154.231 168.533 154.081V151.192H147.387Z" fill="#3F3D56"/>
<path d="M182.674 155.651H135.187C135.057 155.651 134.929 155.622 134.812 155.567C134.694 155.511 134.591 155.43 134.509 155.329C134.427 155.228 134.369 155.11 134.338 154.984C134.308 154.858 134.306 154.727 134.333 154.6L135.069 151.107C135.111 150.911 135.219 150.736 135.374 150.61C135.53 150.484 135.724 150.415 135.924 150.414H181.937C182.137 150.415 182.331 150.484 182.487 150.61C182.642 150.736 182.75 150.911 182.792 151.107L183.529 154.6C183.556 154.727 183.554 154.858 183.523 154.984C183.492 155.11 183.434 155.228 183.352 155.329C183.27 155.43 183.167 155.511 183.05 155.567C182.932 155.622 182.804 155.651 182.674 155.651V155.651Z" fill="#2F2E41"/>
<path d="M137.534 151.043H136.451C136.346 151.043 136.261 151.128 136.261 151.233V151.73C136.261 151.834 136.346 151.919 136.451 151.919H137.534C137.639 151.919 137.724 151.834 137.724 151.73V151.233C137.724 151.128 137.639 151.043 137.534 151.043Z" fill="#3F3D56"/>
<path d="M140.459 151.043H139.376C139.271 151.043 139.186 151.128 139.186 151.233V151.73C139.186 151.834 139.271 151.919 139.376 151.919H140.459C140.564 151.919 140.649 151.834 140.649 151.73V151.233C140.649 151.128 140.564 151.043 140.459 151.043Z" fill="#3F3D56"/>
<path d="M143.384 151.043H142.301C142.196 151.043 142.111 151.128 142.111 151.233V151.73C142.111 151.834 142.196 151.919 142.301 151.919H143.384C143.489 151.919 143.574 151.834 143.574 151.73V151.233C143.574 151.128 143.489 151.043 143.384 151.043Z" fill="#3F3D56"/>
<path d="M146.309 151.043H145.226C145.122 151.043 145.037 151.128 145.037 151.233V151.73C145.037 151.834 145.122 151.919 145.226 151.919H146.309C146.414 151.919 146.499 151.834 146.499 151.73V151.233C146.499 151.128 146.414 151.043 146.309 151.043Z" fill="#3F3D56"/>
<path d="M149.234 151.043H148.151C148.047 151.043 147.962 151.128 147.962 151.233V151.73C147.962 151.834 148.047 151.919 148.151 151.919H149.234C149.339 151.919 149.424 151.834 149.424 151.73V151.233C149.424 151.128 149.339 151.043 149.234 151.043Z" fill="#3F3D56"/>
<path d="M152.159 151.043H151.077C150.972 151.043 150.887 151.128 150.887 151.233V151.73C150.887 151.834 150.972 151.919 151.077 151.919H152.159C152.264 151.919 152.349 151.834 152.349 151.73V151.233C152.349 151.128 152.264 151.043 152.159 151.043Z" fill="#3F3D56"/>
<path d="M155.084 151.043H154.002C153.897 151.043 153.812 151.128 153.812 151.233V151.73C153.812 151.834 153.897 151.919 154.002 151.919H155.084C155.189 151.919 155.274 151.834 155.274 151.73V151.233C155.274 151.128 155.189 151.043 155.084 151.043Z" fill="#3F3D56"/>
<path d="M158.01 151.043H156.927C156.822 151.043 156.737 151.128 156.737 151.233V151.73C156.737 151.834 156.822 151.919 156.927 151.919H158.01C158.114 151.919 158.199 151.834 158.199 151.73V151.233C158.199 151.128 158.114 151.043 158.01 151.043Z" fill="#3F3D56"/>
<path d="M160.935 151.043H159.852C159.747 151.043 159.662 151.128 159.662 151.233V151.73C159.662 151.834 159.747 151.919 159.852 151.919H160.935C161.039 151.919 161.124 151.834 161.124 151.73V151.233C161.124 151.128 161.039 151.043 160.935 151.043Z" fill="#3F3D56"/>
<path d="M163.86 151.043H162.777C162.672 151.043 162.587 151.128 162.587 151.233V151.73C162.587 151.834 162.672 151.919 162.777 151.919H163.86C163.965 151.919 164.05 151.834 164.05 151.73V151.233C164.05 151.128 163.965 151.043 163.86 151.043Z" fill="#3F3D56"/>
<path d="M166.785 151.043H165.702C165.597 151.043 165.512 151.128 165.512 151.233V151.73C165.512 151.834 165.597 151.919 165.702 151.919H166.785C166.89 151.919 166.975 151.834 166.975 151.73V151.233C166.975 151.128 166.89 151.043 166.785 151.043Z" fill="#3F3D56"/>
<path d="M169.71 151.043H168.627C168.522 151.043 168.437 151.128 168.437 151.233V151.73C168.437 151.834 168.522 151.919 168.627 151.919H169.71C169.815 151.919 169.9 151.834 169.9 151.73V151.233C169.9 151.128 169.815 151.043 169.71 151.043Z" fill="#3F3D56"/>
<path d="M172.635 151.043H171.552C171.447 151.043 171.362 151.128 171.362 151.233V151.73C171.362 151.834 171.447 151.919 171.552 151.919H172.635C172.74 151.919 172.825 151.834 172.825 151.73V151.233C172.825 151.128 172.74 151.043 172.635 151.043Z" fill="#3F3D56"/>
<path d="M175.56 151.043H174.477C174.372 151.043 174.287 151.128 174.287 151.233V151.73C174.287 151.834 174.372 151.919 174.477 151.919H175.56C175.665 151.919 175.75 151.834 175.75 151.73V151.233C175.75 151.128 175.665 151.043 175.56 151.043Z" fill="#3F3D56"/>
<path d="M178.485 151.043H177.402C177.297 151.043 177.212 151.128 177.212 151.233V151.73C177.212 151.834 177.297 151.919 177.402 151.919H178.485C178.59 151.919 178.675 151.834 178.675 151.73V151.233C178.675 151.128 178.59 151.043 178.485 151.043Z" fill="#3F3D56"/>
<path d="M181.41 151.043H180.327C180.222 151.043 180.137 151.128 180.137 151.233V151.73C180.137 151.834 180.222 151.919 180.327 151.919H181.41C181.515 151.919 181.6 151.834 181.6 151.73V151.233C181.6 151.128 181.515 151.043 181.41 151.043Z" fill="#3F3D56"/>
<path d="M137.499 152.503H136.417C136.312 152.503 136.227 152.588 136.227 152.693V153.19C136.227 153.294 136.312 153.379 136.417 153.379H137.499C137.604 153.379 137.689 153.294 137.689 153.19V152.693C137.689 152.588 137.604 152.503 137.499 152.503Z" fill="#3F3D56"/>
<path d="M140.425 152.503H139.342C139.237 152.503 139.152 152.588 139.152 152.693V153.19C139.152 153.294 139.237 153.379 139.342 153.379H140.425C140.529 153.379 140.614 153.294 140.614 153.19V152.693C140.614 152.588 140.529 152.503 140.425 152.503Z" fill="#3F3D56"/>
<path d="M143.35 152.503H142.267C142.162 152.503 142.077 152.588 142.077 152.693V153.19C142.077 153.294 142.162 153.379 142.267 153.379H143.35C143.454 153.379 143.539 153.294 143.539 153.19V152.693C143.539 152.588 143.454 152.503 143.35 152.503Z" fill="#3F3D56"/>
<path d="M146.275 152.503H145.192C145.087 152.503 145.002 152.588 145.002 152.693V153.19C145.002 153.294 145.087 153.379 145.192 153.379H146.275C146.38 153.379 146.464 153.294 146.464 153.19V152.693C146.464 152.588 146.38 152.503 146.275 152.503Z" fill="#3F3D56"/>
<path d="M149.2 152.503H148.117C148.012 152.503 147.927 152.588 147.927 152.693V153.19C147.927 153.294 148.012 153.379 148.117 153.379H149.2C149.305 153.379 149.39 153.294 149.39 153.19V152.693C149.39 152.588 149.305 152.503 149.2 152.503Z" fill="#3F3D56"/>
<path d="M152.125 152.503H151.042C150.937 152.503 150.852 152.588 150.852 152.693V153.19C150.852 153.294 150.937 153.379 151.042 153.379H152.125C152.23 153.379 152.315 153.294 152.315 153.19V152.693C152.315 152.588 152.23 152.503 152.125 152.503Z" fill="#3F3D56"/>
<path d="M155.05 152.503H153.967C153.862 152.503 153.777 152.588 153.777 152.693V153.19C153.777 153.294 153.862 153.379 153.967 153.379H155.05C155.155 153.379 155.24 153.294 155.24 153.19V152.693C155.24 152.588 155.155 152.503 155.05 152.503Z" fill="#3F3D56"/>
<path d="M157.975 152.503H156.892C156.787 152.503 156.702 152.588 156.702 152.693V153.19C156.702 153.294 156.787 153.379 156.892 153.379H157.975C158.08 153.379 158.165 153.294 158.165 153.19V152.693C158.165 152.588 158.08 152.503 157.975 152.503Z" fill="#3F3D56"/>
<path d="M160.9 152.503H159.817C159.712 152.503 159.627 152.588 159.627 152.693V153.19C159.627 153.294 159.712 153.379 159.817 153.379H160.9C161.005 153.379 161.09 153.294 161.09 153.19V152.693C161.09 152.588 161.005 152.503 160.9 152.503Z" fill="#3F3D56"/>
<path d="M163.825 152.503H162.742C162.637 152.503 162.552 152.588 162.552 152.693V153.19C162.552 153.294 162.637 153.379 162.742 153.379H163.825C163.93 153.379 164.015 153.294 164.015 153.19V152.693C164.015 152.588 163.93 152.503 163.825 152.503Z" fill="#3F3D56"/>
<path d="M166.75 152.503H165.667C165.562 152.503 165.478 152.588 165.478 152.693V153.19C165.478 153.294 165.562 153.379 165.667 153.379H166.75C166.855 153.379 166.94 153.294 166.94 153.19V152.693C166.94 152.588 166.855 152.503 166.75 152.503Z" fill="#3F3D56"/>
<path d="M169.675 152.503H168.592C168.488 152.503 168.403 152.588 168.403 152.693V153.19C168.403 153.294 168.488 153.379 168.592 153.379H169.675C169.78 153.379 169.865 153.294 169.865 153.19V152.693C169.865 152.588 169.78 152.503 169.675 152.503Z" fill="#3F3D56"/>
<path d="M172.6 152.503H171.517C171.413 152.503 171.328 152.588 171.328 152.693V153.19C171.328 153.294 171.413 153.379 171.517 153.379H172.6C172.705 153.379 172.79 153.294 172.79 153.19V152.693C172.79 152.588 172.705 152.503 172.6 152.503Z" fill="#3F3D56"/>
<path d="M175.525 152.503H174.443C174.338 152.503 174.253 152.588 174.253 152.693V153.19C174.253 153.294 174.338 153.379 174.443 153.379H175.525C175.63 153.379 175.715 153.294 175.715 153.19V152.693C175.715 152.588 175.63 152.503 175.525 152.503Z" fill="#3F3D56"/>
<path d="M178.451 152.503H177.368C177.263 152.503 177.178 152.588 177.178 152.693V153.19C177.178 153.294 177.263 153.379 177.368 153.379H178.451C178.555 153.379 178.64 153.294 178.64 153.19V152.693C178.64 152.588 178.555 152.503 178.451 152.503Z" fill="#3F3D56"/>
<path d="M181.376 152.503H180.293C180.188 152.503 180.103 152.588 180.103 152.693V153.19C180.103 153.294 180.188 153.379 180.293 153.379H181.376C181.48 153.379 181.565 153.294 181.565 153.19V152.693C181.565 152.588 181.48 152.503 181.376 152.503Z" fill="#3F3D56"/>
<path d="M161.778 154.255H150.457C150.352 154.255 150.267 154.34 150.267 154.444V154.941C150.267 155.046 150.352 155.131 150.457 155.131H161.778C161.882 155.131 161.967 155.046 161.967 154.941V154.444C161.967 154.34 161.882 154.255 161.778 154.255Z" fill="#3F3D56"/>
<path d="M194.209 83.7076H119.525C119.447 83.706 119.373 83.674 119.318 83.6186C119.264 83.5632 119.234 83.4887 119.234 83.4111C119.234 83.3336 119.264 83.2591 119.318 83.2037C119.373 83.1482 119.447 83.1163 119.525 83.1147H194.209C194.286 83.1163 194.36 83.1482 194.415 83.2037C194.469 83.2591 194.499 83.3336 194.499 83.4111C194.499 83.4887 194.469 83.5632 194.415 83.6186C194.36 83.674 194.286 83.706 194.209 83.7076V83.7076Z" fill="#CACACA"/>
<path d="M124.608 81.601C125.57 81.601 126.349 80.8058 126.349 79.8249C126.349 78.844 125.57 78.0488 124.608 78.0488C123.647 78.0488 122.868 78.844 122.868 79.8249C122.868 80.8058 123.647 81.601 124.608 81.601Z" fill="#3F3D56"/>
<path d="M130.621 81.601C131.582 81.601 132.362 80.8058 132.362 79.8249C132.362 78.844 131.582 78.0488 130.621 78.0488C129.66 78.0488 128.881 78.844 128.881 79.8249C128.881 80.8058 129.66 81.601 130.621 81.601Z" fill="#3F3D56"/>
<path d="M136.634 81.601C137.595 81.601 138.375 80.8058 138.375 79.8249C138.375 78.844 137.595 78.0488 136.634 78.0488C135.673 78.0488 134.893 78.844 134.893 79.8249C134.893 80.8058 135.673 81.601 136.634 81.601Z" fill="#3F3D56"/>
<path d="M190.588 78.489H186.317C186.233 78.4907 186.152 78.5255 186.093 78.5858C186.033 78.6462 186 78.7273 186 78.8119C186 78.8964 186.033 78.9775 186.093 79.0379C186.152 79.0982 186.233 79.133 186.317 79.1347H190.588C190.673 79.133 190.754 79.0982 190.813 79.0379C190.872 78.9775 190.905 78.8964 190.905 78.8119C190.905 78.7273 190.872 78.6462 190.813 78.5858C190.754 78.5255 190.673 78.4907 190.588 78.489V78.489Z" fill="#3F3D56"/>
<path d="M190.588 79.7008H186.317C186.233 79.7025 186.152 79.7372 186.093 79.7976C186.033 79.8579 186 79.9391 186 80.0236C186 80.1081 186.033 80.1893 186.093 80.2496C186.152 80.31 186.233 80.3447 186.317 80.3464H190.588C190.673 80.3447 190.754 80.31 190.813 80.2496C190.872 80.1893 190.905 80.1081 190.905 80.0236C190.905 79.9391 190.872 79.8579 190.813 79.7976C190.754 79.7372 190.673 79.7025 190.588 79.7008V79.7008Z" fill="#3F3D56"/>
<path d="M190.588 80.911H186.317C186.233 80.9126 186.152 80.9474 186.093 81.0078C186.033 81.0681 186 81.1493 186 81.2338C186 81.3183 186.033 81.3995 186.093 81.4598C186.152 81.5202 186.233 81.5549 186.317 81.5566H190.588C190.673 81.5549 190.754 81.5202 190.813 81.4598C190.872 81.3995 190.905 81.3183 190.905 81.2338C190.905 81.1493 190.872 81.0681 190.813 81.0078C190.754 80.9474 190.673 80.9126 190.588 80.911V80.911Z" fill="#3F3D56"/>
<path d="M162.832 101.027H153.5C152.799 101.027 152.231 101.594 152.231 102.294V102.294C152.231 102.994 152.799 103.561 153.5 103.561H162.832C163.533 103.561 164.102 102.994 164.102 102.294V102.294C164.102 101.594 163.533 101.027 162.832 101.027Z" fill="#F47222"/>
<path d="M168.861 106.095H147.472C146.771 106.095 146.202 106.662 146.202 107.362V107.362C146.202 108.061 146.771 108.628 147.472 108.628H168.861C169.562 108.628 170.13 108.061 170.13 107.362C170.13 106.662 169.562 106.095 168.861 106.095Z" fill="#E6E6E6"/>
<path d="M168.861 111.162H147.472C146.771 111.162 146.202 111.729 146.202 112.429C146.202 113.129 146.771 113.696 147.472 113.696H168.861C169.562 113.696 170.13 113.129 170.13 112.429C170.13 111.729 169.562 111.162 168.861 111.162Z" fill="#E6E6E6"/>
<path d="M120.254 159.462H96.9244C96.0994 159.462 95.3083 159.789 94.7249 160.372C94.1416 160.954 93.8138 161.744 93.8138 162.567C93.8138 163.391 94.1416 164.181 94.7249 164.763C95.3083 165.345 96.0994 165.672 96.9244 165.672H105.479V189.736H111.7V165.672H120.254C121.079 165.672 121.87 165.345 122.453 164.763C123.037 164.181 123.364 163.391 123.364 162.567C123.364 161.744 123.037 160.954 122.453 160.372C121.87 159.789 121.079 159.462 120.254 159.462Z" fill="#3F3D56"/>
<path d="M135.652 203.062H73.2522C67.2029 203.04 61.3634 200.847 56.8005 196.882C52.2376 192.918 49.2559 187.447 48.4 181.469L46.1912 173.359C41.6194 156.553 34.6558 140.489 25.5131 125.658C21.3343 118.884 19.1834 112.327 24.0686 106.013C24.1102 105.96 24.1512 105.907 24.1914 105.854C28.1096 100.764 47.6119 99.6618 53.9696 99.4475C54.2207 99.4389 54.4729 99.4347 54.7259 99.4348H93.5378C93.7911 99.4348 94.0431 99.439 94.294 99.4475C97.7213 99.5472 101.058 100.571 103.949 102.411C106.84 104.25 109.179 106.837 110.716 109.896C112.357 113.019 113.12 116.528 112.925 120.049C112.729 123.57 111.582 126.972 109.606 129.896C95.9725 150.338 91.7983 163.156 96.0718 171.457C100.205 179.486 112.877 183.592 135.949 184.376C142.149 184.587 144.995 189.406 145.015 193.794C145.034 198.069 142.298 202.789 136.246 203.05C136.049 203.058 135.851 203.062 135.652 203.062Z" fill="#3F3D56"/>
<path d="M83.8525 258.369H107.182C108.007 258.369 108.798 258.042 109.381 257.46C109.965 256.878 110.292 256.088 110.292 255.264C110.292 254.441 109.965 253.651 109.381 253.069C108.798 252.486 108.007 252.159 107.182 252.159H98.6277V199.763H92.4066V252.159H83.8525C83.0275 252.159 82.2363 252.486 81.6529 253.069C81.0696 253.651 80.7419 254.441 80.7419 255.264C80.7419 256.088 81.0696 256.878 81.6529 257.46C82.2363 258.042 83.0275 258.369 83.8525 258.369Z" fill="#3F3D56"/>
<path d="M81.9893 101.38L82.4783 104.346C82.7097 105.784 83.5475 115.945 82.9268 117.157C82.8721 114.894 78.6497 111.336 75.9139 112.148L71.6204 113.1L68.9556 113.692L66.7867 114.167L60.4843 115.541C60.4733 115.468 60.4653 115.391 60.4543 115.318C60.4394 115.226 60.4245 115.134 60.4058 115.042C60.2885 114.452 60.0744 113.886 59.7723 113.365C59.7403 114.062 59.5341 114.74 59.1725 115.338C59.1627 115.353 59.1541 115.37 59.1469 115.387C59.0349 115.567 58.9114 115.741 58.777 115.906C58.7708 115.91 58.7652 115.915 58.7603 115.921C58.7603 115.921 57.4653 95.3159 57.601 95.1258C57.7003 94.9906 57.8004 94.8593 57.905 94.7309C58.0089 94.5988 58.1098 94.4712 58.2182 94.3421C58.2321 94.3298 58.2439 94.3154 58.2531 94.2993C58.5569 93.9404 58.8786 93.5971 59.217 93.2705C59.3164 93.1749 59.4197 93.0786 59.523 92.9822C61.0997 91.526 62.9836 90.4413 65.0359 89.808C65.2674 89.737 65.508 89.672 65.7525 89.6062C65.994 89.545 66.24 89.4868 66.4876 89.4362L66.5714 89.4191C66.6895 89.395 66.8122 89.3739 66.9311 89.3536C67.0804 89.3271 67.2305 89.3043 67.3776 89.2862C69.2871 89.0116 71.2323 89.1207 73.0989 89.6071C73.1028 89.6064 73.1035 89.6102 73.1073 89.6094C74.6655 90.0158 76.1465 90.6742 77.4915 91.5583C79.818 93.0917 80.7236 95.5927 81.3667 98.4008C81.5922 99.365 81.782 100.368 81.9893 101.38Z" fill="#2F2E41"/>
<path d="M104.968 237.246L108.987 239.425L119.626 224.742L113.694 221.526L104.968 237.246Z" fill="#FFB6B6"/>
<path d="M106.902 232.014L114.198 234.294L113.037 237.345L118.04 244.593C118.287 244.951 118.413 245.379 118.4 245.813C118.386 246.248 118.234 246.666 117.965 247.008C117.696 247.35 117.325 247.598 116.905 247.714C116.486 247.831 116.04 247.81 115.633 247.656L107.139 244.435L106.824 240.862L105.104 243.663L101.901 242.448L106.902 232.014Z" fill="#2F2E41"/>
<path d="M127.732 171.572C127.091 171.728 126.423 171.741 125.775 171.612C125.128 171.482 124.517 171.212 123.986 170.821C123.454 170.431 123.015 169.928 122.699 169.35C122.383 168.771 122.198 168.13 122.156 167.473L87.8773 155.163L94.1682 149.698L126.704 162.629C127.816 162.633 128.887 163.045 129.715 163.785C130.543 164.525 131.071 165.542 131.197 166.645C131.324 167.747 131.041 168.857 130.403 169.765C129.764 170.673 128.814 171.316 127.732 171.572V171.572Z" fill="#FFB6B6"/>
<path d="M78.3012 124.667C78.3012 124.667 72.5278 124.794 72.0145 131.374C71.5012 137.953 84.0987 154.227 86.0504 156.91C88.0022 159.594 109.682 162.897 109.682 162.897L117.052 157.557C109.308 152.548 102.24 148.708 97.4976 148.88L78.3012 124.667Z" fill="#F47222"/>
<path d="M71.2204 153.698L72.6272 159.731C72.6272 159.731 72.641 165.295 73.6282 166.321C74.6084 167.342 96.1626 165.292 96.1626 165.292C96.1626 165.292 93.8773 156.326 93.9077 149.543L71.2204 153.698Z" fill="#FFB6B6"/>
<path d="M116.754 230.876L108.978 226.607C108.83 216.506 114.916 202.837 122.136 188.52C105.99 191.292 90.759 192.179 77.5845 188.827C75.4217 188.256 73.5704 186.86 72.4309 184.938C71.2913 183.017 70.9549 180.725 71.4945 178.558C71.5457 178.345 71.605 178.135 71.6723 177.926C73.2491 173.124 69.7136 170.114 72.9654 164.833C81.5181 161.917 89.6428 161.094 97.0724 163.668L101.728 173.942L124.801 170.962C125.916 170.829 127.046 170.917 128.127 171.222C129.207 171.527 130.216 172.043 131.096 172.739C131.976 173.435 132.709 174.298 133.253 175.278C133.797 176.258 134.142 177.336 134.267 178.45C134.298 178.7 134.318 178.951 134.327 179.203C129.662 201.036 124.43 220.681 116.754 230.876Z" fill="#2F2E41"/>
<path d="M72.2889 112.003C77.5075 110.937 80.8723 105.85 79.8045 100.641C78.7367 95.4322 73.6406 92.0734 68.422 93.1393C63.2035 94.2052 59.8387 99.2921 60.9065 104.501C61.9743 109.71 67.0704 113.069 72.2889 112.003Z" fill="#FFB6B6"/>
<path d="M68.0883 115.498L76.9772 114.974C77.352 114.952 77.7244 115.047 78.0425 115.246C78.3606 115.445 78.6085 115.739 78.7517 116.085L81.2637 122.164L91.7037 130.777C91.7037 130.777 95.8371 136.027 95.8467 142.808C95.8563 149.589 97.3132 165.284 97.3132 165.284C97.3132 165.284 91.2807 156.808 87.5572 159.063C86.9237 159.446 86.7009 160.23 86.0374 160.627C85.7064 160.824 84.9417 160.632 84.6075 160.83C79.4766 163.871 74.1257 166.841 73.6257 166.32C72.644 165.298 71.4532 160.072 71.4532 160.072L63.3166 130.231C62.8755 128.661 62.7879 127.013 63.0601 125.405C63.3323 123.797 63.9576 122.269 64.8911 120.931C65.4596 120.132 66.0551 119.538 66.6086 119.439C67.8514 119.175 67.1903 116.395 68.0883 115.498Z" fill="#F47222"/>
<path d="M143.702 249.886L147.454 247.282L138.954 231.275L133.417 235.118L143.702 249.886Z" fill="#FFB6B6"/>
<path d="M144.269 239.145L138.389 244.392C129.039 233.992 121.97 219.407 115.98 202.843C100.285 198.255 88.4485 190.855 78.1156 182.068C74.6102 179.108 71.9824 175.304 74.972 171.697C75.1118 171.529 75.2577 171.366 75.4099 171.208C78.9397 167.587 87.8913 168.277 93.1342 164.96L104.846 177.456L104.109 180.806L126.108 188.244C127.166 188.614 128.141 189.19 128.975 189.938C129.81 190.686 130.488 191.592 130.97 192.603C131.452 193.614 131.728 194.71 131.784 195.828C131.839 196.946 131.673 198.064 131.293 199.118C131.211 199.356 131.118 199.59 131.016 199.821L144.269 239.145Z" fill="#2F2E41"/>
<path d="M141.515 248.831L147.521 244.109L149.387 246.789L158.205 246.762C158.641 246.761 159.065 246.898 159.417 247.155C159.768 247.412 160.029 247.774 160.159 248.188C160.29 248.603 160.285 249.048 160.144 249.46C160.004 249.871 159.735 250.227 159.377 250.475L151.917 255.652L148.785 253.893L150.129 256.892L147.316 258.844L141.515 248.831Z" fill="#2F2E41"/>
<path d="M81.2143 190.703C80.6065 190.446 80.0628 190.058 79.6212 189.568C79.1797 189.078 78.8512 188.498 78.6588 187.867C78.4664 187.237 78.4148 186.572 78.5076 185.92C78.6005 185.267 78.8355 184.643 79.1962 184.091L59.0729 153.778L67.3884 153.147L85.7418 182.919C86.6306 183.585 87.2437 184.553 87.4648 185.641C87.686 186.728 87.5 187.859 86.9419 188.818C86.3838 189.778 85.4925 190.5 84.4369 190.847C83.3812 191.194 82.2346 191.143 81.2143 190.703Z" fill="#FFB6B6"/>
<path d="M69.644 123.612C69.644 123.612 64.938 120.271 60.5889 125.241C56.2397 130.212 56.6028 150.774 56.562 154.091C56.5492 155.129 58.0513 157.369 60.1209 159.958C61.05 161.119 62.0935 162.351 63.1656 163.576C63.7861 164.285 63.2515 165.76 63.8745 166.448C64.494 167.134 66.2712 167.032 66.8606 167.668C69.6578 170.686 71.9303 172.983 71.9303 172.983L81.0366 173.095C81.1393 166.338 76.5035 160.306 70.5478 154.477L69.644 123.612Z" fill="#F47222"/>
<path d="M82.41 97.8946C82.0531 98.0705 81.7069 98.2403 81.3668 98.4008C80.002 99.0705 78.5916 99.6432 77.1461 100.115C76.9055 99.4616 76.5385 98.8622 76.0661 98.3505C76.187 99.0571 76.1254 99.7828 75.8871 100.459C73.699 101 71.4022 100.911 69.2624 100.204C70.6618 102.79 71.6956 108.24 71.6204 113.1C71.5876 115.67 71.2391 118.075 70.4782 119.803L69.5003 116.833C69.4097 115.773 69.2274 114.722 68.9556 113.692C68.3 110.803 67.6878 112.735 66.7867 114.167L60.4843 115.541C60.4733 115.468 60.4653 115.391 60.4543 115.318C60.4394 115.226 60.4245 115.134 60.4058 115.042C60.2885 114.452 60.0744 113.886 59.7723 113.365C59.7403 114.062 59.5341 114.741 59.1725 115.338C59.1626 115.353 59.1541 115.37 59.1468 115.387C59.0349 115.567 58.9114 115.741 58.777 115.906C58.7708 115.91 58.7652 115.915 58.7603 115.921C54.6913 116.465 51.8389 95.5193 57.6018 95.1296C57.7693 95.1183 57.8011 94.8631 57.905 94.7309C58.0089 94.5988 58.1098 94.4712 58.2182 94.3421C58.2321 94.3299 58.2439 94.3154 58.2531 94.2993C58.5611 93.9433 58.8799 93.6009 59.217 93.2705C59.3164 93.1749 59.4197 93.0786 59.523 92.9822C61.1046 91.5331 62.9873 90.4505 65.0366 89.8119C65.2681 89.7408 65.508 89.672 65.7525 89.6062C65.994 89.545 66.24 89.4868 66.4876 89.4363L66.5714 89.4191C66.6895 89.395 66.8122 89.3739 66.9311 89.3536C67.0804 89.3271 67.2305 89.3043 67.3776 89.2862C67.9299 89.564 68.4025 89.9773 68.751 90.4873L72.7774 89.6649C72.8841 89.6431 72.9915 89.6251 73.0997 89.611L73.1074 89.6094C78.1342 88.7689 81.3663 92.8032 82.41 97.8946Z" fill="#2F2E41"/>
<path d="M60.4651 94.1915C59.6029 94.8127 58.6959 95.4526 57.6439 95.6065C56.5919 95.7604 55.3603 95.2528 55.0692 94.232C54.7132 92.9839 55.8423 91.8475 56.857 91.0364L60.0749 88.4643C60.6642 87.9427 61.3294 87.5133 62.0478 87.191C62.4087 87.0325 62.8006 86.9571 63.1946 86.9702C63.5887 86.9834 63.9747 87.0848 64.3241 87.267C64.67 87.5001 64.9503 87.8177 65.1383 88.1896C65.3264 88.5615 65.4159 88.9752 65.3985 89.3914C65.3526 90.2255 65.0768 91.0308 64.6015 91.7184C64.0042 92.6478 63.2246 93.447 62.3098 94.0677C61.3949 94.6885 60.3637 95.1181 59.2781 95.3306" fill="#2F2E41"/>
<path d="M84.8709 161.015H61.5416C60.7166 161.015 59.9254 161.342 59.342 161.924C58.7587 162.507 58.431 163.296 58.431 164.12C58.431 164.943 58.7587 165.733 59.342 166.315C59.9254 166.898 60.7166 167.225 61.5416 167.225H70.0957V191.288H76.3168V167.225H84.8709C85.6959 167.225 86.4871 166.898 87.0704 166.315C87.6538 165.733 87.9815 164.943 87.9815 164.12C87.9815 163.296 87.6538 162.507 87.0704 161.924C86.4871 161.342 85.6959 161.015 84.8709 161.015Z" fill="#3F3D56"/>
<path d="M171.059 259.493L0.462969 259.612C0.340415 259.611 0.223005 259.563 0.136472 259.476C0.0499388 259.389 0.00134277 259.272 0.00134277 259.15C0.00134277 259.027 0.0499388 258.91 0.136472 258.823C0.223005 258.737 0.340415 258.688 0.462969 258.688L171.059 258.568C171.182 258.569 171.299 258.618 171.386 258.704C171.472 258.791 171.521 258.908 171.521 259.03C171.521 259.153 171.472 259.27 171.386 259.357C171.299 259.443 171.182 259.492 171.059 259.493Z" fill="#CACACA"/>
<path d="M220.704 207.945L224.502 212.076L242.272 199.42L236.667 193.323L220.704 207.945Z" fill="#A0616A"/>
<path d="M228.564 213.791V213.787L228.179 209.662L228.004 209.58L226.982 209.095L222.156 206.817L222.055 206.708L221.087 205.652L215.725 210.566L222.989 218.468L227.969 223.886L228.137 223.731C228.819 223.107 229.372 222.354 229.763 221.517C230.154 220.679 230.375 219.773 230.415 218.85C230.455 217.926 230.312 217.004 229.994 216.136C229.677 215.268 229.191 214.472 228.564 213.791H228.564Z" fill="#2F2E41"/>
<path d="M201.028 249.157L206.403 250.786L215.258 230.869L207.325 228.464L201.028 249.157Z" fill="#A0616A"/>
<path d="M214.944 253.616C214.511 252.799 213.919 252.077 213.203 251.49C212.488 250.904 211.663 250.466 210.776 250.201L208.338 246.843L208.147 246.859L201.704 247.449L201.561 247.406L200.192 246.991L198.077 253.942L215.407 259.197L215.473 258.976C215.743 258.092 215.836 257.163 215.745 256.243C215.654 255.323 215.382 254.43 214.944 253.616V253.616Z" fill="#2F2E41"/>
<path d="M245.346 144.872C245.346 144.872 279.66 177.943 257.968 188.179H251.263C251.263 188.179 249.248 181.034 244.635 175.008C244.002 174.181 241.628 174.349 240.969 173.542C236.945 168.618 232.583 164.389 229.57 164.557L230.291 187.407L231.457 195.557C232.07 199.771 214.784 236.559 214.784 236.559L203.919 232.297C203.919 232.297 215.238 201.996 215.371 197.628L206.3 149.596L245.346 144.872Z" fill="#2F2E41"/>
<path d="M248.208 146.503C248.033 146.752 247.804 146.959 247.539 147.109C247.102 147.355 246.628 147.531 246.135 147.629C238.409 149.379 213.171 153.008 206.619 151.277C205.814 151.067 205.289 150.772 205.118 150.384C204.57 149.158 204.64 143.976 204.963 137.72C205.021 136.548 206.316 135.279 206.394 134.052C206.448 133.132 205.285 132.267 205.348 131.332C205.775 125.005 206.328 118.559 206.697 114.483C206.93 111.863 207.09 110.226 207.09 110.226L203.104 85.1415L203.291 84.8349L203.501 84.7301L216.351 78.3805L217.051 76.5952C217.254 76.0811 217.607 75.6396 218.063 75.3275C218.52 75.0155 219.06 74.8473 219.614 74.8448L228.078 74.8098C228.517 74.8074 228.951 74.9097 229.342 75.1082C229.734 75.3066 230.072 75.5955 230.33 75.9509L232.624 79.1218L247.788 88.8248L247.729 89.0033L240.614 110.618L240.579 112.302V112.306L240.315 125.851L241.049 127.687L240.221 130.699C240.221 130.699 240.602 134.219 242.644 136.835C244.494 139.21 246.851 141.687 247.916 143.697V143.701C248.507 144.811 248.705 145.773 248.208 146.503Z" fill="#F47222"/>
<path d="M259.615 186.215L257.781 188.528C257.781 188.528 240.913 200.308 240.333 201.409L237.667 203.927L231.217 197.044L234.572 192.847C237.256 189.489 240.724 186.838 244.673 185.128V185.128L249.814 180.575L259.615 186.215Z" fill="#2F2E41"/>
<path d="M248.897 153.152L245.825 123.472L245.014 111.257L253.612 109.705C253.612 109.705 253.271 118.439 254.398 123.367C255.509 128.23 254.545 152.5 254.476 153.149C255.108 153.713 255.553 154.454 255.753 155.276C255.953 156.098 255.898 156.961 255.596 157.75C255.294 158.54 254.759 159.22 254.062 159.7C253.364 160.18 252.537 160.437 251.69 160.437C250.843 160.438 250.016 160.181 249.318 159.702C248.62 159.223 248.084 158.544 247.781 157.754C247.479 156.965 247.423 156.102 247.622 155.28C247.821 154.458 248.266 153.716 248.897 153.152V153.152Z" fill="#A0616A"/>
<path d="M257.284 129.623L246.232 131.906L245.266 128.061L244.14 126.868L241.889 115.099L238.66 108.204L239.499 84.6287L247.701 88.9707L247.711 88.9784C248.965 90.3377 249.83 92.2831 251.267 94.2352C255.797 100.386 256.299 115.333 256.162 123.52C256.16 123.655 256.296 123.797 256.458 123.946C257.229 124.653 257.733 125.603 257.883 126.638C258.034 127.672 257.822 128.726 257.284 129.623V129.623Z" fill="#F47222"/>
<path d="M198.853 154.316L201.925 124.637L202.736 112.421L194.138 110.87C194.138 110.87 194.479 119.604 193.352 124.532C192.241 129.395 193.205 153.665 193.274 154.313C192.642 154.877 192.197 155.619 191.997 156.44C191.797 157.262 191.852 158.125 192.154 158.915C192.456 159.705 192.991 160.385 193.689 160.864C194.386 161.344 195.213 161.601 196.06 161.602C196.907 161.602 197.734 161.346 198.432 160.867C199.13 160.388 199.666 159.708 199.969 158.919C200.272 158.129 200.327 157.266 200.128 156.444C199.929 155.622 199.484 154.88 198.853 154.316V154.316Z" fill="#A0616A"/>
<path d="M209.092 109.368L206.697 114.483L205.861 116.265L203.61 128.033L202.486 129.224L201.518 133.07L201.063 132.977L192.859 131.281L190.467 130.788C189.928 129.892 189.716 128.837 189.866 127.802C190.017 126.768 190.52 125.817 191.292 125.11C191.455 124.962 191.591 124.819 191.587 124.683C191.451 116.498 191.953 101.551 196.483 95.3995C197.921 93.4473 198.784 91.5028 200.04 90.1444C200.044 90.1405 200.044 90.1366 200.048 90.1366L203.104 85.1415L203.291 84.8349L203.501 84.7301L209.092 109.368Z" fill="#F47222"/>
<path d="M223.602 72.4044C229.822 72.4044 234.864 67.3711 234.864 61.1623C234.864 54.9535 229.822 49.9202 223.602 49.9202C217.382 49.9202 212.339 54.9535 212.339 61.1623C212.339 67.3711 217.382 72.4044 223.602 72.4044Z" fill="#A0616A"/>
<path d="M236.263 56.2306C236.224 54.3133 236.006 51.8604 234.661 49.9043C233.526 48.2586 231.235 46.9546 229.101 47.6066C229.125 47.1805 229.03 46.7562 228.827 46.3807C228.624 46.0052 228.32 45.6933 227.95 45.4797C227.141 44.9868 226.169 44.8975 225.31 44.816C223.144 44.6142 220.901 44.4046 218.708 44.8199C216.246 45.2856 214.232 46.5509 213.186 48.2936L213.163 48.3479L212.949 49.3803C212.921 49.5188 212.862 49.6494 212.778 49.7633C212.695 49.8772 212.587 49.9716 212.463 50.0401C212.339 50.1095 212.201 50.1508 212.059 50.1608C211.918 50.1709 211.775 50.1496 211.643 50.0983C211.498 50.044 211.341 50.0284 211.188 50.0531C211.035 50.0778 210.891 50.1419 210.77 50.2392C210.65 50.3364 210.557 50.4633 210.5 50.6074C210.444 50.7515 210.426 50.9078 210.449 51.0609L210.507 51.4723L209.889 51.3558C209.734 51.3258 209.574 51.3377 209.424 51.3903C209.275 51.4429 209.143 51.5342 209.041 51.6549C208.939 51.7755 208.872 51.9212 208.845 52.0767C208.818 52.2322 208.834 52.392 208.89 52.5396L209.061 53.0092C208.933 53.0109 208.807 53.0382 208.69 53.0896C208.573 53.1409 208.468 53.2152 208.38 53.3081C208.256 53.4434 208.177 53.6148 208.156 53.7975C208.135 53.9803 208.173 54.165 208.264 54.3249C208.957 55.5056 209.939 56.4912 211.118 57.1893C211.648 57.5081 212.22 57.7523 212.817 57.915C212.941 57.95 213.07 57.981 213.202 58.0082C217.976 59.0352 222.897 59.1825 227.724 58.4429C227.44 59.3934 227.331 60.3876 227.402 61.3771C227.557 62.6151 228.284 63.6359 229.256 63.9774C229.477 64.0519 229.703 64.1064 229.933 64.1405C230.153 64.1761 230.37 64.2293 230.582 64.2996C230.895 64.4139 231.172 64.6087 231.385 64.8642C231.598 65.1196 231.74 65.4267 231.796 65.7544C231.852 66.0821 231.82 66.4188 231.704 66.7303C231.588 67.0419 231.391 67.3173 231.134 67.5287C231.134 67.5287 232.153 68.3709 232.281 68.3283C232.782 68.1075 233.201 67.7356 233.479 67.2648C235.419 64.4781 236.356 60.7677 236.263 56.2306Z" fill="#2F2E41"/>
</g>
<defs>
<clipPath id="clip0_4_2">
<rect width="301" height="260" fill="white"/>
</clipPath>
</defs>
</svg>
